<svg width="1440" height="1024" viewBox="0 0 1440 1024" fill="none" xmlns="http://www.w3.org/2000/svg">
<g clip-path="url(#clip0)">
<rect width="1440" height="1024" fill="white"/>
<rect x="166" width="1108" height="1024" fill="#C4C4C4"/>
<rect width="166" height="1024" fill="#297FFF"/>
<rect x="1274" width="166" height="1021" fill="#297FFF"/>
<path d="M1292.6 196.28L1292.79 197.31L1296.44 196.534L1296.28 195.649L1292.6 196.28Z" fill="#7BE669"/>
<path d="M1314.48 195.422L1309.98 193.202L1306.49 194.186L1309.81 199.473L1306.1 194.271L1302.05 195.349L1304.67 202.045L1301.67 195.428L1299.3 195.932L1298.89 200.805L1298.94 196.01L1296.44 196.534C1296.33 199 1293.52 205.341 1304.35 203.429C1316.34 201.311 1319.87 189.891 1319.93 189.691L1310.5 193.093L1314.48 195.422" fill="#7BE669"/>
<path d="M1301.21 186.287C1290.38 188.199 1295.3 193.356 1296.28 195.65L1298.79 195.226L1297.05 190.776L1299.16 195.162L1301.55 194.752L1302 187.473L1301.93 194.687L1306.01 193.765L1306.78 187.89L1306.4 193.697L1309.92 192.859L1312.24 189.449L1310.44 192.769L1319.93 189.69C1319.93 189.689 1319.93 189.681 1319.93 189.681C1319.93 189.681 1305.2 185.582 1301.21 186.287" fill="#7BE669"/>
<path d="M1291.1 190.037C1290.24 188.207 1289.93 186.195 1290.03 184.244C1290.08 183.267 1290.25 182.3 1290.52 181.367C1290.78 180.43 1291.13 179.525 1291.57 178.668C1292.46 176.955 1293.7 175.451 1295.16 174.223C1297.4 172.355 1300.13 171.052 1302.93 170.569C1301.58 171.957 1300.34 173.494 1299.43 175.354C1298.92 176.423 1298.53 177.626 1298.52 178.964C1298.49 180.288 1298.97 181.769 1299.96 182.819C1300.93 183.881 1302.22 184.499 1303.49 184.803C1304.76 185.11 1306.05 185.128 1307.29 184.955C1309.78 184.604 1312.08 183.483 1313.95 181.856C1314.86 181.061 1315.74 180.123 1316.41 178.956C1317.09 177.803 1317.51 176.36 1317.43 174.882C1317.36 173.403 1316.78 171.986 1315.95 170.88C1315.11 169.759 1314.07 168.895 1312.96 168.226C1311.91 167.614 1310.79 167.144 1309.62 166.828C1312.84 164.102 1316.35 161.664 1319.93 159.325C1316.03 161.187 1312.23 163.287 1308.65 165.787C1308.35 166.001 1308.05 166.221 1307.76 166.44C1307.1 166.345 1306.43 166.291 1305.76 166.279C1303.3 166.226 1300.86 166.734 1298.64 167.657C1297.52 168.111 1296.47 168.69 1295.47 169.336C1294.97 169.664 1294.51 169.997 1294.02 170.374L1293.7 170.633L1293.35 170.933C1293.12 171.132 1292.9 171.33 1292.68 171.539C1290.97 173.163 1289.61 175.166 1288.71 177.404C1288.27 178.492 1287.95 179.628 1287.76 180.792C1287.58 181.945 1287.54 183.117 1287.63 184.282C1287.79 186.615 1288.58 188.851 1289.89 190.734C1291.21 192.601 1293.08 194.01 1295.13 194.758C1293.35 193.508 1291.95 191.878 1291.1 190.037V190.037ZM1305.82 170.374C1307.62 170.453 1309.41 170.87 1310.86 171.716C1312.38 172.553 1313.43 173.842 1313.56 175.149C1313.73 176.456 1312.94 178.031 1311.58 179.329C1310.27 180.594 1308.57 181.522 1306.78 181.859C1305.02 182.212 1303.08 181.916 1302.04 180.884C1301.53 180.383 1301.22 179.72 1301.17 178.909C1301.11 178.103 1301.31 177.196 1301.66 176.312C1302.37 174.528 1303.62 172.851 1304.98 171.29C1305.25 170.978 1305.54 170.676 1305.82 170.374" fill="#7BE669"/>
<path d="M106.799 822.163L106.792 823.209L110.525 823.085L110.533 822.187L106.799 822.163Z" fill="#7BE669"/>
<path d="M128.474 825.157L124.469 822.185L120.85 822.54L123.122 828.321L120.451 822.555L116.261 822.904L117.585 829.949L115.876 822.916L113.455 822.996L112.131 827.715L113.079 823.008L110.525 823.085C109.955 825.491 106.007 831.236 117.009 831.253C129.203 831.274 134.811 820.662 134.908 820.476L124.993 822.167L128.474 825.157" fill="#7BE669"/>
<path d="M117.132 813.845C106.124 813.826 110.001 819.761 110.533 822.188L113.085 822.212L112.204 817.53L113.461 822.214L115.881 822.229L117.691 815.151L116.267 822.232L120.455 822.042L122.311 816.398L120.855 822.044L124.473 821.837L127.391 818.89L124.999 821.839L134.91 820.476C134.91 820.474 134.913 820.467 134.913 820.467C134.913 820.467 121.187 813.851 117.132 813.845" fill="#7BE669"/>
<path d="M106.495 815.761C105.985 813.809 106.062 811.776 106.52 809.875C106.757 808.923 107.104 808.002 107.546 807.132C107.973 806.255 108.488 805.427 109.082 804.661C110.28 803.133 111.779 801.871 113.444 800.92C116.003 799.477 118.926 798.673 121.777 798.69C120.187 799.818 118.675 801.111 117.434 802.781C116.734 803.743 116.124 804.858 115.86 806.172C115.585 807.469 115.782 809.009 116.556 810.216C117.315 811.431 118.466 812.265 119.654 812.785C120.852 813.311 122.116 813.554 123.368 813.602C125.881 813.693 128.356 812.995 130.496 811.722C131.539 811.1 132.582 810.332 133.461 809.302C134.342 808.286 135.028 806.942 135.224 805.474C135.432 804.008 135.127 802.512 134.513 801.278C133.907 800.03 133.044 798.997 132.079 798.146C131.157 797.358 130.14 796.699 129.052 796.184C132.734 794.069 136.64 792.286 140.6 790.614C136.416 791.761 132.281 793.158 128.296 794.99C127.959 795.147 127.626 795.312 127.292 795.475C126.66 795.266 126.016 795.096 125.363 794.968C122.949 794.483 120.458 794.555 118.098 795.073C116.915 795.323 115.771 795.708 114.671 796.169C114.117 796.404 113.596 796.65 113.049 796.936L112.682 797.133L112.279 797.366C112.018 797.522 111.762 797.678 111.512 797.845C109.519 799.142 107.81 800.873 106.506 802.916C105.873 803.91 105.347 804.972 104.937 806.081C104.549 807.186 104.286 808.33 104.155 809.491C103.877 811.814 104.23 814.151 105.174 816.233C106.123 818.301 107.697 820.015 109.567 821.109C108.053 819.568 106.982 817.719 106.495 815.761V815.761ZM124.654 799.006C126.411 799.399 128.091 800.122 129.361 801.209C130.692 802.297 131.483 803.75 131.37 805.058C131.287 806.373 130.221 807.784 128.638 808.821C127.113 809.835 125.268 810.45 123.446 810.468C121.65 810.507 119.796 809.875 118.969 808.678C118.556 808.095 118.376 807.389 118.478 806.583C118.575 805.78 118.94 804.922 119.45 804.115C120.481 802.485 122.026 801.055 123.657 799.758C123.982 799.5 124.317 799.252 124.654 799.006" fill="#7BE669"/>
<g clip-path="url(#clip1)">
<path d="M79.7455 484.322L79.0786 485.146L82.1114 487.256L82.6853 486.55L79.7455 484.322Z" fill="#7BE669"/>
<path d="M95.0071 499.512L93.7152 494.791L90.6269 492.932L88.7724 498.85L90.3014 492.707L86.7652 490.505L83.3623 496.863L86.4531 490.287L84.4863 488.918L80.4571 491.869L84.1814 488.706L82.111 487.256C80.14 488.822 73.3864 491.033 82.0817 497.555C91.7188 504.784 102.861 499.704 103.056 499.614L94.1413 495.087L95.0071 499.512" fill="#7BE669"/>
<path d="M93.1783 483.851C84.4784 477.325 83.7967 484.315 82.6847 486.551L84.6889 488.079L86.9497 483.852L84.9849 488.303L86.8905 489.746L92.7958 485.215L87.1942 489.977L90.6288 492.303L95.6638 488.935L90.9441 492.542L93.9384 494.518L98.1092 493.912L94.3534 494.831L103.058 499.615C103.058 499.613 103.065 499.61 103.065 499.61C103.065 499.61 96.3835 486.254 93.1783 483.851" fill="#7BE669"/>
<path d="M83.55 479.075C84.3798 477.229 85.7243 475.666 87.2886 474.432C88.0769 473.819 88.9342 473.296 89.8333 472.869C90.7248 472.427 91.6559 472.076 92.61 471.822C94.5236 471.321 96.5069 471.209 98.4262 471.441C101.363 471.813 104.184 472.905 106.429 474.606C104.458 474.558 102.444 474.686 100.408 475.274C99.2453 475.621 98.0583 476.143 97.0195 477.026C95.9822 477.89 95.1649 479.226 95.0153 480.639C94.8478 482.049 95.2326 483.39 95.8432 484.504C96.4591 485.629 97.3058 486.569 98.2666 487.348C100.198 488.906 102.597 489.818 105.095 490.076C106.313 490.201 107.624 490.211 108.97 489.915C110.309 489.632 111.702 488.974 112.784 487.928C113.876 486.891 114.579 485.527 114.873 484.187C115.181 482.841 115.151 481.513 114.926 480.268C114.693 479.1 114.305 477.977 113.77 476.926C118.02 477.429 122.238 478.329 126.428 479.349C122.392 477.781 118.236 476.441 113.925 475.533C113.559 475.459 113.192 475.392 112.825 475.324C112.457 474.784 112.054 474.269 111.619 473.781C110.014 471.969 107.997 470.553 105.803 469.567C104.708 469.065 103.56 468.693 102.399 468.407C101.811 468.265 101.244 468.152 100.63 468.054L100.215 467.994L99.7484 467.939C99.444 467.908 99.1424 467.88 98.839 467.865C96.4431 467.713 93.9968 468.072 91.6734 468.917C90.5448 469.329 89.4575 469.858 88.4321 470.494C87.4275 471.138 86.4966 471.889 85.6589 472.73C83.9717 474.403 82.7745 476.462 82.2057 478.668C81.6502 480.866 81.8133 483.153 82.6019 485.125C82.3772 483.01 82.6978 480.913 83.55 479.075V479.075ZM108.507 476.557C109.648 477.907 110.521 479.474 110.839 481.085C111.205 482.734 110.914 484.351 109.997 485.32C109.101 486.311 107.366 486.797 105.458 486.682C103.61 486.582 101.761 485.977 100.308 484.914C98.863 483.882 97.7945 482.286 97.896 480.849C97.9374 480.143 98.2417 479.478 98.8318 478.9C99.4156 478.323 100.246 477.859 101.16 477.522C103.006 476.842 105.131 476.624 107.242 476.562C107.662 476.55 108.084 476.553 108.507 476.557" fill="#7BE669"/>
</g>
<g clip-path="url(#clip2)">
<path d="M125.242 164.494L125.833 165.37L128.874 163.271L128.367 162.518L125.242 164.494Z" fill="#7BE669"/>
<path d="M145.016 155.4L139.981 155.065L137.167 157.296L142.363 160.899L136.843 157.522L133.55 160.053L138.677 165.216L133.236 160.268L131.264 161.63L132.855 166.271L130.958 161.841L128.873 163.271C129.772 165.581 129.763 172.48 138.942 166.612C149.117 160.109 147.73 148.266 147.705 148.059L140.407 154.77L145.016 155.4" fill="#7BE669"/>
<path d="M129.102 152.037C119.917 157.907 126.538 160.781 128.368 162.519L130.508 161.174L127.1 157.743L130.823 160.975L132.848 159.694L130.314 152.826L133.171 159.49L136.553 157.092L134.877 151.395L136.888 156.88L139.785 154.772L140.534 150.756L140.225 154.493L147.706 148.058C147.705 148.057 147.704 148.049 147.704 148.049C147.704 148.049 132.485 149.873 129.102 152.037" fill="#7BE669"/>
<path d="M121.331 159.321C119.792 157.967 118.694 156.232 117.991 154.402C117.644 153.482 117.408 152.529 117.279 151.568C117.134 150.609 117.09 149.643 117.149 148.687C117.274 146.773 117.802 144.92 118.647 143.236C119.956 140.665 121.933 138.432 124.319 136.923C123.637 138.713 123.116 140.599 123.035 142.654C123.001 143.831 123.13 145.086 123.66 146.322C124.172 147.55 125.216 148.729 126.55 149.32C127.876 149.927 129.312 150.006 130.599 149.805C131.897 149.603 133.09 149.13 134.161 148.5C136.308 147.232 137.972 145.328 139.028 143.122C139.542 142.046 139.973 140.848 140.117 139.52C140.271 138.202 140.076 136.715 139.4 135.387C138.736 134.053 137.628 132.97 136.412 132.269C135.193 131.554 133.884 131.154 132.593 130.96C131.375 130.797 130.151 130.792 128.951 130.944C130.811 127.212 133.049 123.638 135.394 120.127C132.562 123.32 129.914 126.696 127.638 130.354C127.447 130.665 127.264 130.98 127.079 131.294C126.433 131.457 125.799 131.661 125.181 131.903C122.892 132.79 120.858 134.182 119.186 135.875C118.343 136.716 117.61 137.648 116.956 138.62C116.628 139.113 116.335 139.596 116.042 140.127L115.849 140.488L115.646 140.898C115.518 141.167 115.393 141.434 115.28 141.707C114.361 143.853 113.925 146.21 114.005 148.61C114.045 149.777 114.212 150.943 114.504 152.087C114.812 153.215 115.247 154.309 115.8 155.347C116.895 157.431 118.524 159.19 120.5 160.421C122.472 161.637 124.763 162.224 126.946 162.136C124.805 161.661 122.855 160.693 121.331 159.321V159.321ZM126.897 135.647C128.585 135.035 130.399 134.74 132.078 134.967C133.809 135.162 135.298 135.95 135.951 137.101C136.633 138.24 136.55 139.986 135.823 141.698C135.131 143.358 133.945 144.857 132.436 145.846C130.962 146.839 129.056 147.304 127.682 146.749C127.005 146.484 126.452 145.991 126.077 145.264C125.7 144.544 125.513 143.634 125.477 142.689C125.406 140.778 125.877 138.761 126.495 136.808C126.618 136.418 126.757 136.033 126.897 135.647" fill="#7BE669"/>
</g>
<g clip-path="url(#clip3)">
<path d="M1315.79 841.339L1316.64 841.977L1318.8 839.023L1318.06 838.474L1315.79 841.339Z" fill="#7BE669"/>
<path d="M1331.34 826.432L1326.48 827.726L1324.58 830.731L1330.72 832.471L1324.35 831.048L1322.11 834.49L1328.71 837.723L1321.89 834.794L1320.49 836.71L1323.58 840.581L1320.27 837.007L1318.8 839.023C1320.43 840.916 1322.78 847.43 1329.44 838.956C1336.82 829.565 1331.47 818.831 1331.37 818.644L1326.78 827.311L1331.34 826.432" fill="#7BE669"/>
<path d="M1315.17 828.347C1308.51 836.825 1315.74 837.42 1318.06 838.475L1319.62 836.521L1315.23 834.373L1319.85 836.233L1321.33 834.376L1316.59 828.704L1321.56 834.08L1323.93 830.735L1320.41 825.895L1324.18 830.428L1326.19 827.512L1325.53 823.483L1326.51 827.108L1331.37 818.642C1331.37 818.641 1331.37 818.634 1331.37 818.634C1331.37 818.634 1317.63 825.223 1315.17 828.347" fill="#7BE669"/>
<path d="M1310.33 837.707C1308.41 836.921 1306.78 835.635 1305.5 834.133C1304.85 833.376 1304.31 832.551 1303.86 831.685C1303.39 830.827 1303.02 829.929 1302.75 829.008C1302.21 827.161 1302.08 825.243 1302.3 823.384C1302.66 820.539 1303.76 817.8 1305.5 815.612C1305.47 817.519 1305.62 819.466 1306.24 821.432C1306.61 822.553 1307.16 823.697 1308.09 824.693C1308.99 825.689 1310.38 826.468 1311.84 826.599C1313.3 826.748 1314.68 826.363 1315.82 825.762C1316.98 825.156 1317.95 824.328 1318.74 823.391C1320.33 821.508 1321.25 819.178 1321.5 816.759C1321.61 815.579 1321.61 814.31 1321.29 813.011C1320.99 811.718 1320.3 810.377 1319.21 809.34C1318.12 808.293 1316.71 807.625 1315.32 807.353C1313.93 807.067 1312.55 807.109 1311.27 807.338C1310.06 807.574 1308.91 807.96 1307.83 808.488C1308.31 804.371 1309.2 800.282 1310.21 796.218C1308.63 800.138 1307.28 804.171 1306.39 808.351C1306.31 808.705 1306.25 809.061 1306.18 809.417C1305.63 809.778 1305.1 810.172 1304.6 810.598C1302.74 812.167 1301.29 814.132 1300.29 816.264C1299.79 817.328 1299.41 818.442 1299.13 819.569C1298.99 820.138 1298.88 820.688 1298.78 821.283L1298.72 821.685L1298.67 822.137C1298.64 822.432 1298.61 822.724 1298.6 823.018C1298.47 825.338 1298.86 827.701 1299.75 829.941C1300.19 831.029 1300.75 832.076 1301.41 833.063C1302.09 834.029 1302.87 834.923 1303.75 835.725C1305.5 837.342 1307.63 838.481 1309.92 839.011C1312.2 839.528 1314.56 839.349 1316.59 838.568C1314.41 838.805 1312.24 838.514 1310.33 837.707V837.707ZM1307.49 813.583C1308.88 812.466 1310.49 811.608 1312.15 811.285C1313.85 810.915 1315.53 811.182 1316.54 812.06C1317.57 812.918 1318.09 814.592 1317.99 816.439C1317.9 818.228 1317.29 820.022 1316.21 821.438C1315.15 822.846 1313.51 823.895 1312.03 823.81C1311.3 823.776 1310.61 823.488 1310.01 822.923C1309.4 822.363 1308.92 821.564 1308.56 820.683C1307.84 818.903 1307.6 816.849 1307.51 814.807C1307.5 814.401 1307.49 813.992 1307.49 813.583" fill="#7BE669"/>
</g>
<g clip-path="url(#clip4)">
<path d="M1318.67 571.558L1318.33 572.549L1321.91 573.563L1322.21 572.712L1318.67 571.558Z" fill="#7BE669"/>
<path d="M1338.29 580.97L1335.44 576.934L1331.89 576.174L1332.18 582.353L1331.51 576.067L1327.42 575.128L1326.39 582.22L1327.05 575.023L1324.72 574.366L1321.94 578.445L1324.36 574.264L1321.91 573.562C1320.59 575.674 1314.98 579.933 1325.42 583.284C1337 587 1345.76 578.622 1345.91 578.475L1335.95 577.076L1338.29 580.97" fill="#7BE669"/>
<path d="M1331.18 566.789C1320.73 563.435 1322.49 570.247 1322.21 572.713L1324.62 573.509L1325.3 568.795L1324.98 573.625L1327.27 574.373L1331.29 568.199L1327.64 574.492L1331.68 575.581L1335.27 570.784L1332.06 575.704L1335.56 576.604L1339.29 574.69L1336.06 576.766L1345.91 578.475C1345.91 578.474 1345.92 578.468 1345.92 578.468C1345.92 578.468 1335.03 568.024 1331.18 566.789" fill="#7BE669"/>
<path d="M1320.45 565.385C1320.6 563.377 1321.33 561.469 1322.38 559.803C1322.92 558.971 1323.55 558.201 1324.25 557.509C1324.94 556.806 1325.69 556.175 1326.51 555.629C1328.14 554.54 1329.97 553.796 1331.86 553.397C1334.76 552.802 1337.79 552.925 1340.49 553.806C1338.62 554.395 1336.76 555.164 1335.05 556.374C1334.07 557.076 1333.13 557.949 1332.45 559.117C1331.77 560.266 1331.46 561.788 1331.8 563.169C1332.13 564.552 1332.96 565.693 1333.91 566.548C1334.88 567.41 1336 568.024 1337.18 568.449C1339.53 569.297 1342.11 569.385 1344.56 568.824C1345.75 568.55 1346.99 568.137 1348.15 567.425C1349.32 566.727 1350.41 565.658 1351.07 564.324C1351.74 562.994 1351.93 561.481 1351.75 560.123C1351.58 558.755 1351.09 557.512 1350.45 556.411C1349.83 555.384 1349.08 554.449 1348.21 553.63C1352.4 552.738 1356.68 552.229 1360.98 551.841C1356.64 551.662 1352.26 551.736 1347.88 552.268C1347.51 552.315 1347.14 552.37 1346.77 552.424C1346.24 552.033 1345.68 551.677 1345.1 551.357C1342.97 550.165 1340.58 549.479 1338.17 549.255C1336.97 549.134 1335.76 549.153 1334.56 549.257C1333.96 549.312 1333.39 549.388 1332.77 549.494L1332.36 549.57L1331.9 549.669C1331.6 549.738 1331.31 549.809 1331.02 549.892C1328.71 550.519 1326.52 551.645 1324.62 553.19C1323.7 553.942 1322.86 554.791 1322.11 555.72C1321.38 556.652 1320.76 557.659 1320.26 558.722C1319.25 560.843 1318.83 563.17 1319.05 565.433C1319.28 567.685 1320.22 569.789 1321.64 571.395C1320.7 569.473 1320.28 567.392 1320.45 565.385V565.385ZM1343.12 554.977C1344.67 555.883 1346.03 557.079 1346.88 558.496C1347.79 559.933 1348.07 561.552 1347.54 562.761C1347.04 563.984 1345.57 565.001 1343.73 565.506C1341.95 566.007 1340 566.032 1338.27 565.497C1336.55 564.989 1334.99 563.827 1334.59 562.44C1334.39 561.761 1334.45 561.036 1334.81 560.301C1335.16 559.568 1335.78 558.864 1336.53 558.252C1338.03 557.016 1339.96 556.127 1341.93 555.389C1342.33 555.242 1342.72 555.109 1343.12 554.977" fill="#7BE669"/>
</g>
<path fill-rule="evenodd" clip-rule="evenodd" d="M-3.10925 37.9334L1.23491 32.5594L59.2978 76.4979L54.0351 76.9152L54.9536 81.8718L-3.10925 37.9334ZM28.5583 49.8601C33.5444 46.7995 36.092 41.9542 35.5591 37.3673C34.7209 30.1544 27.1592 25.7265 27.1592 25.7265C27.1592 25.7265 19.2664 30.9267 20.1104 38.1873C20.9161 45.1114 28.0266 49.4577 28.5583 49.8601ZM20.8583 59.3855C18.9892 64.805 14.7426 68.3645 10.0133 68.9689C2.5763 69.919 -3.68869 63.887 -3.68869 63.887C-3.68869 63.887 -0.373541 55.2224 7.11266 54.2662C14.2543 53.3524 20.3244 58.9858 20.8583 59.3855V59.3855ZM15.0134 73.6106C15.4766 78.9416 13.339 83.426 9.74097 85.4885C4.08133 88.7366 -3.17372 85.5195 -3.17372 85.5195C-3.17372 85.5195 -3.64851 76.8883 2.04725 73.62C7.4815 70.5045 14.4369 73.4341 15.0134 73.6106ZM41.3912 40.9799C46.8502 40.1309 50.8335 37.0433 52.0358 33.1677C53.9306 27.0704 48.9563 21.032 48.9563 21.032C48.9563 21.032 40.1841 22.6651 38.2776 28.8011C36.4614 34.6548 41.0754 40.481 41.3912 40.9799ZM32.3015 52.4375C36.021 56.3481 40.8827 58.2303 44.9127 57.638C51.2495 56.7084 53.7824 50.4617 53.7824 50.4617C53.7824 50.4617 47.5741 44.2863 41.1933 45.2216C35.1091 46.1129 32.5649 51.9959 32.3015 52.4375V52.4375ZM24.317 62.3149C29.1355 64.8659 32.1944 68.9782 32.5709 72.9054C33.1648 79.0802 27.5089 82.9634 27.5089 82.9634C27.5089 82.9634 19.8192 78.6206 19.2205 72.4031C18.6491 66.4748 23.9374 62.6686 24.317 62.3149V62.3149ZM21.6299 79.9389C24.4152 83.8658 25.0119 88.2152 23.4792 91.2994C21.0649 96.1504 14.5598 96.6668 14.5598 96.6668C14.5598 96.6668 10.2388 90.1918 12.6665 85.312C14.9819 80.6503 21.1478 80.0418 21.6299 79.9389V79.9389ZM49.3326 45.6692C53.9425 47.339 58.449 46.8518 61.1735 44.6696C65.4579 41.2339 64.409 35.0006 64.409 35.0006C64.409 35.0006 56.8734 32.5023 52.5633 35.9575C48.445 39.2547 49.3197 45.1917 49.3326 45.6692ZM39.2694 72.5094C43.3552 75.4976 45.5502 79.6491 45.2789 83.2505C44.8531 88.9135 38.9686 91.6233 38.9686 91.6233C38.9686 91.6233 32.4908 86.6039 32.923 80.9024C33.3302 75.4635 38.8635 72.7739 39.2694 72.5094ZM46.1288 64.0239C50.1104 67.1411 54.8033 68.2025 58.3505 67.0803C63.9283 65.3165 65.2291 59.1377 65.2291 59.1377C65.2291 59.1377 58.634 54.2634 53.0192 56.0425C47.6616 57.7348 46.2964 63.579 46.1288 64.0239V64.0239ZM58.0567 52.315C61.4538 55.2108 65.569 56.3287 68.7653 55.4822C73.7943 54.1476 75.2147 48.7652 75.2147 48.7652C75.2147 48.7652 69.5803 44.2196 64.5208 45.5615C59.6917 46.8439 58.2266 51.9282 58.0567 52.315ZM30.3974 86.531C34.1203 89.0238 36.2329 92.6191 36.1536 95.8245C36.0261 100.869 30.9693 103.499 30.9693 103.499C30.9693 103.499 25.0526 99.3027 25.1801 94.2281C25.3032 89.3841 30.0503 86.7837 30.3974 86.531ZM48.4589 82.1925C53.0684 83.2168 56.667 86.0096 58.0394 89.296C60.1998 94.465 56.6549 99.1792 56.6549 99.1792C56.6549 99.1792 49.2276 97.3086 47.0536 92.1077C44.9795 87.1426 48.245 82.585 48.4589 82.1925ZM58.0551 70.3215C60.1929 74.4036 63.861 77.1103 67.488 77.6076C73.1932 78.3914 77.0682 73.927 77.0682 73.927C77.0682 73.927 73.4029 67.4025 67.6623 66.6136C62.1824 65.8617 58.3973 70.0261 58.0551 70.3215ZM65.4463 62.9573C68.3072 65.3953 71.7688 66.3348 74.4621 65.623C78.6925 64.5025 79.8897 59.9689 79.8897 59.9689C79.8897 59.9689 75.1452 56.1444 70.8873 57.2745C66.8241 58.3526 65.5871 62.6308 65.4463 62.9573ZM42.8523 90.9073C45.9869 93.0067 47.763 96.0313 47.6977 98.732C47.5927 102.975 43.3336 105.191 43.3336 105.191C43.3336 105.191 38.3544 101.656 38.4625 97.3857C38.5653 93.3103 42.5587 91.1182 42.8523 90.9073ZM57.2946 79.4816C61.4941 78.3506 65.766 79.232 68.4954 81.5402C72.7872 85.1694 72.2876 90.9238 72.2876 90.9238C72.2876 90.9238 65.4087 92.5605 61.0864 88.9082C56.9684 85.4235 57.321 79.9303 57.2946 79.4816Z" fill="#7BE669"/>
<g clip-path="url(#clip5)">
<path fill-rule="evenodd" clip-rule="evenodd" d="M0.178684 696.978L0.210208 693.541L11.8039 693.64C12.287 692.259 13.3228 691.052 14.7175 690.16C14.1457 689.121 13.8327 687.978 13.8437 686.782C13.8872 682.038 18.9888 678.232 25.2312 678.285C28.4474 678.313 31.3444 679.36 33.3875 681.02C34.6234 680.432 36.0877 680.097 37.6551 680.111C41.9026 680.147 45.351 682.726 45.5094 685.921C50.7709 687.381 54.5174 691.236 54.4763 695.725C54.4351 700.215 50.6184 704.005 45.331 705.374C45.114 708.566 41.6189 711.085 37.3713 711.049C35.8039 711.035 34.346 710.676 33.1211 710.067C31.0479 711.691 28.1322 712.688 24.916 712.661C18.6736 712.607 13.6426 708.714 13.6861 703.97C13.6971 702.773 14.0309 701.637 14.6217 700.607C13.2435 699.691 12.2301 698.467 11.7724 697.078L0.178684 696.978Z" fill="#7BE669"/>
</g>
<g clip-path="url(#clip6)">
<path fill-rule="evenodd" clip-rule="evenodd" d="M1423.09 111.586C1410.25 100.421 1404.05 78.8117 1420.02 62.0218C1394.89 68.1883 1377.94 50.6955 1374.94 38.2809C1385.68 43.2215 1414.1 30.5654 1430.52 55.5659C1446.94 80.5664 1422.94 99.9226 1423.09 111.586ZM1362.86 110.251C1357.2 113.694 1349.76 112.138 1346.23 106.76C1342.69 101.379 1344.4 94.1978 1350.02 90.7022C1344.16 87.7567 1341.94 80.7651 1345.06 75.0643C1348.19 69.3669 1355.49 67.1031 1361.38 69.9951C1361.18 63.604 1366.4 58.168 1373.06 57.8485C1379.72 57.5324 1385.32 62.4495 1385.58 68.8339C1391.24 65.3915 1398.69 66.9473 1402.22 72.3285C1405.75 77.7065 1404.05 84.8875 1398.42 88.3831C1404.28 91.3286 1406.51 98.3235 1403.38 104.021C1400.26 109.718 1392.95 111.982 1387.06 109.09C1387.26 115.481 1382.05 120.917 1375.39 121.237C1368.73 121.556 1363.13 116.636 1362.86 110.251V110.251ZM1365.77 95.3774C1362.75 90.7791 1364.22 84.637 1369.05 81.6673C1373.88 78.6976 1380.25 80.0193 1383.27 84.6175C1386.29 89.2158 1384.82 95.3579 1379.99 98.3276C1375.16 101.297 1368.79 99.9756 1365.77 95.3774Z" fill="#7BE669"/>
</g>
<g clip-path="url(#clip7)">
<path fill-rule="evenodd" clip-rule="evenodd" d="M1442.44 1022.01L1436.16 1026.47L1421.63 1007.3L1399.63 1022.91L1394.76 990.987L1385.34 997.675L1380.47 965.752L1374.18 970.211L1369.55 932.221L1405.6 947.915L1399.32 952.374L1429.32 966.461L1419.9 973.15L1449.9 987.237L1427.91 1002.84L1442.44 1022.01V1022.01Z" fill="#7BE669"/>
</g>
<g clip-path="url(#clip8)">
<path fill-rule="evenodd" clip-rule="evenodd" d="M22.2388 637.922C22.1438 634.836 24.9107 632.052 28.5108 632.052C31.8565 632.052 34.7829 634.505 34.7829 637.922C37.1555 635.642 41.2073 635.548 43.7161 637.861C45.9883 639.957 46.3575 643.502 43.6516 646.104C46.9793 646.015 50.015 648.558 50.015 651.891C50.015 654.969 47.3646 657.677 43.6516 657.677C46.2697 660.093 46.0833 663.735 43.7161 665.919C41.3542 668.096 37.4082 668.283 34.7829 665.859C34.7829 669.282 31.8476 671.73 28.5108 671.73C24.9196 671.73 22.1402 668.951 22.2388 665.859C19.4432 668.334 15.5976 668.035 13.3038 665.919C10.7986 663.606 10.8953 659.868 13.3701 657.677C9.67138 657.677 7.00665 654.982 7.00665 651.891C7.00665 648.573 10.0208 646.017 13.3701 646.104C10.752 643.689 10.9365 640.045 13.3038 637.861C15.6639 635.684 19.6135 635.5 22.2388 637.922ZM28.5108 646.104C31.973 646.104 34.7829 648.697 34.7829 651.891C34.7829 655.085 31.973 657.677 28.5108 657.677C25.0487 657.677 22.2388 655.085 22.2388 651.891C22.2388 648.697 25.0487 646.104 28.5108 646.104Z" fill="#7BE669"/>
</g>
<g clip-path="url(#clip9)">
<path fill-rule="evenodd" clip-rule="evenodd" d="M0.245 612.686L0.289768 608.734L8.87643 608.825C9.94306 603.232 15.1839 599.011 21.432 599.077C24.7169 599.112 24.0098 599.148 49.4674 609.406C49.467 609.438 50.7557 609.86 50.7401 611.245C50.7245 612.623 49.4305 613.028 49.4302 613.059C25.8309 622.01 25.035 622.83 21.1634 622.789C14.9153 622.723 9.77132 618.392 8.83166 612.777L0.245 612.686Z" fill="#7BE669"/>
</g>
<path d="M53.6124 968.2C35.9472 978.246 9.61383 1001.3 -0.994934 1024H9.17108C12.004 1016.71 17.8947 1007.64 22.4917 1002.71C51.4989 1016.23 82.0212 992.7 82.0212 961.794C82.0212 956.257 80.9766 950.482 78.8389 944.642C70.7206 955.892 59.3059 948.436 41.3052 950.503C14.8196 953.548 2.69582 975.021 10.9905 992.13C23.1178 979.811 43.9306 969.116 53.6124 968.2V968.2Z" fill="#7BE669"/>
<g clip-path="url(#clip10)">
<path fill-rule="evenodd" clip-rule="evenodd" d="M40.2186 779.209C44.7705 779.179 49.1472 780.786 52.386 783.676C55.6247 786.565 57.4602 790.5 57.4886 794.616L57.5719 806.686L44.2229 806.772C39.6711 806.802 35.2943 805.195 32.0556 802.305C28.8168 799.416 26.9814 795.48 26.953 791.365L26.8935 782.743L0.195617 782.916L0.171825 779.467L15.4277 779.369L15.3683 770.748C15.3399 766.632 17.1209 762.673 20.3195 759.742C23.5181 756.811 27.8722 755.148 32.4241 755.119L45.7731 755.032L45.8563 767.102C45.89 771.978 43.4333 776.343 39.5664 779.213L40.2186 779.209ZM33.9681 783.201L45.4814 793.473L42.7979 795.932L31.2846 785.66L33.9681 783.201ZM19.7783 776.396L31.1488 765.976L33.866 768.4L22.4954 778.82L19.7783 776.396Z" fill="#7BE669"/>
</g>
<g clip-path="url(#clip11)">
<path d="M61.5172 597.212H55.1826C49.3025 597.212 43.6633 595.546 39.5054 592.582C35.3475 589.617 33.0117 585.597 33.0117 581.405V579.146H29.8444V590.437H7.67341C5.99338 590.437 4.38216 589.961 3.1942 589.114C2.00624 588.267 1.33885 587.119 1.33885 585.921V567.856C1.33885 566.658 2.00624 565.509 3.1942 564.662C4.38216 563.815 5.99338 563.34 7.67341 563.34H29.8444V574.63H39.3462C45.2263 574.63 50.8656 576.296 55.0235 579.26C59.1813 582.224 61.5172 586.245 61.5172 590.437V597.212ZM64.6845 562.21C64.6876 564.92 63.7774 567.591 62.0307 569.997C60.284 572.404 57.7518 574.476 54.6474 576.039C50.2493 573.653 44.8728 572.365 39.3462 572.372H36.1789V571.243C36.1789 566.751 38.6817 562.444 43.1365 559.267C47.5914 556.091 53.6334 554.307 59.9335 554.307H64.6845V562.21Z" fill="#7BE669"/>
</g>
<g clip-path="url(#clip12)">
<path d="M33.2732 846.784C31.7912 845.069 30.8515 843.241 30.454 841.3C30.0564 839.358 30.2914 837.896 31.159 836.913C31.159 836.887 31.2313 836.805 31.3759 836.667C31.5205 836.528 31.6561 836.383 31.7826 836.232C31.9091 836.081 31.9724 835.929 31.9724 835.778L16.7904 835.777C18.6339 836.887 20.1701 838.148 21.3991 839.56C22.0858 840.341 22.5828 841.243 22.89 842.264C23.1972 843.285 23.3328 844.249 23.2966 845.157C23.2604 846.065 23.179 846.916 23.0525 847.71C22.9259 848.504 22.7722 849.128 22.5915 849.582L22.3746 850.3C22.1577 850.225 21.8685 850.105 21.507 849.941C21.1456 849.777 20.4678 849.443 19.4738 848.939C18.4798 848.434 17.5309 847.918 16.6272 847.388C15.7236 846.858 14.7567 846.197 13.7265 845.402C12.6963 844.608 11.8379 843.82 11.1511 843.038C8.33173 839.761 6.84979 837.34 6.70527 835.777L2.47601 835.777C1.53618 835.777 0.722866 835.543 0.0360842 835.077C-0.650698 834.611 -0.994073 834.037 -0.994042 833.356C-0.994011 832.675 -0.650583 832.102 0.0362411 831.635C0.723066 831.169 1.5364 830.936 2.47623 830.936L6.05484 830.936C5.83801 829.751 6.00073 828.371 6.54302 826.795C7.0853 825.219 7.91676 823.763 9.0374 822.427C9.68809 821.645 10.5828 820.901 11.7215 820.195C12.8601 819.49 13.9988 818.916 15.1375 818.475C16.2761 818.034 17.3877 817.649 18.4721 817.321C19.5566 816.994 20.4151 816.761 21.0477 816.622C21.6803 816.483 22.0146 816.414 22.0508 816.414C22.1592 816.616 22.2767 816.88 22.4032 817.208C22.5297 817.536 22.7104 818.173 22.9453 819.118C23.1802 820.064 23.3067 820.971 23.3247 821.841C23.3428 822.711 23.1801 823.663 22.8366 824.696C22.4932 825.73 21.9238 826.613 21.1285 827.344C20.3332 828.075 18.1463 829.272 14.5676 830.936L28.5025 830.937C28.5025 830.786 28.4392 830.634 28.3127 830.483C28.1862 830.332 28.0506 830.187 27.9061 830.048C27.7615 829.909 27.6711 829.828 27.635 829.802C26.8036 828.819 26.5868 827.357 26.9845 825.415C27.3822 823.474 28.3221 821.646 29.8043 819.931C30.4911 819.15 31.431 818.406 32.6239 817.7C33.8168 816.994 34.9555 816.433 36.0399 816.017C37.1243 815.601 38.2901 815.223 39.5372 814.883C40.7843 814.543 41.6428 814.322 42.1128 814.221C42.5827 814.12 42.9442 814.045 43.1972 813.994C43.2695 814.171 43.3598 814.417 43.4683 814.732C43.5767 815.047 43.7122 815.658 43.8749 816.566C44.0375 817.474 44.1278 818.344 44.1458 819.176C44.1639 820.008 44.0192 820.947 43.7119 821.993C43.4046 823.04 42.9076 823.954 42.2207 824.735C40.8832 826.298 39.2655 827.653 37.3677 828.801C35.4699 829.948 33.6716 830.66 31.9726 830.937L40.7023 830.937C40.7745 830.937 40.9191 830.95 41.136 830.975C41.5698 829.841 42.2205 828.82 43.0881 827.912C43.9557 827.03 45.2842 826.235 47.0735 825.53C48.8628 824.824 50.4443 824.345 51.8179 824.093L53.8784 823.677C53.9145 823.803 53.9778 823.979 54.0681 824.206C54.1585 824.433 54.2669 824.868 54.3934 825.511C54.5199 826.154 54.5831 826.772 54.5831 827.364C54.583 827.957 54.4655 828.631 54.2305 829.387C53.9955 830.144 53.6069 830.799 53.0647 831.354C51.9079 832.589 50.3987 833.636 48.5371 834.493C46.6754 835.35 45.2205 835.779 44.1722 835.779L35.4426 835.778C37.1415 836.056 38.9398 836.768 40.8375 837.915C42.7352 839.062 44.3527 840.418 45.6901 841.981C46.3769 842.763 46.8739 843.664 47.1811 844.685C47.4883 845.706 47.6238 846.671 47.5876 847.578C47.5514 848.486 47.47 849.337 47.3435 850.131C47.2169 850.925 47.0814 851.549 46.9367 852.003L46.6656 852.722C46.4126 852.671 46.0601 852.602 45.6083 852.514C45.1565 852.426 44.298 852.205 43.0328 851.852C41.7677 851.499 40.5929 851.114 39.5085 850.698C38.4241 850.282 37.2855 849.721 36.0926 849.015C34.8998 848.309 33.96 847.565 33.2732 846.784Z" fill="#7BE669"/>
</g>
<g clip-path="url(#clip13)">
<path d="M131.937 990.429C130.167 991.865 128.279 992.776 126.273 993.163C124.267 993.55 122.755 993.325 121.738 992.486C121.712 992.486 121.627 992.416 121.484 992.277C121.34 992.137 121.19 992.006 121.034 991.884C120.877 991.762 120.721 991.7 120.564 991.701L120.582 1006.39C121.726 1004.61 123.028 1003.12 124.485 1001.93C125.292 1001.26 126.223 1000.78 127.278 1000.48C128.333 1000.18 129.33 1000.05 130.268 1000.08C131.206 1000.12 132.086 1000.2 132.907 1000.32C133.728 1000.44 134.373 1000.59 134.842 1000.76L135.585 1000.97C135.507 1001.18 135.383 1001.46 135.214 1001.81C135.046 1002.16 134.701 1002.82 134.181 1003.78C133.661 1004.74 133.128 1005.66 132.582 1006.53C132.036 1007.41 131.353 1008.35 130.533 1009.34C129.713 1010.34 128.9 1011.17 128.093 1011.84C124.709 1014.57 122.209 1016.01 120.594 1016.15L120.599 1020.24C120.6 1021.15 120.36 1021.94 119.878 1022.6C119.397 1023.27 118.805 1023.6 118.101 1023.6C117.398 1023.6 116.804 1023.27 116.321 1022.61C115.839 1021.94 115.597 1021.16 115.596 1020.25L115.591 1016.78C114.367 1017 112.94 1016.84 111.311 1016.32C109.682 1015.79 108.176 1014.99 106.793 1013.91C105.985 1013.28 105.215 1012.41 104.484 1011.31C103.753 1010.21 103.159 1009.11 102.702 1008.01C102.244 1006.91 101.846 1005.83 101.506 1004.79C101.166 1003.74 100.924 1002.91 100.78 1002.29C100.636 1001.68 100.564 1001.36 100.564 1001.32C100.772 1001.22 101.045 1001.1 101.384 1000.98C101.723 1000.86 102.38 1000.68 103.357 1000.46C104.334 1000.23 105.272 1000.1 106.171 1000.08C107.07 1000.07 108.054 1000.22 109.123 1000.55C110.191 1000.88 111.104 1001.43 111.861 1002.2C112.617 1002.97 113.858 1005.09 115.581 1008.55L115.565 995.064C115.409 995.064 115.253 995.125 115.097 995.248C114.94 995.371 114.791 995.502 114.648 995.642C114.504 995.782 114.42 995.87 114.394 995.905C113.378 996.71 111.867 996.922 109.86 996.539C107.854 996.157 105.963 995.25 104.19 993.818C103.381 993.154 102.611 992.245 101.88 991.092C101.149 989.939 100.568 988.838 100.137 987.789C99.7057 986.74 99.3135 985.612 98.9603 984.406C98.607 983.2 98.378 982.37 98.2733 981.915C98.1685 981.46 98.0899 981.111 98.0375 980.866C98.2198 980.796 98.4738 980.708 98.7994 980.603C99.125 980.497 99.7567 980.366 100.695 980.207C101.632 980.049 102.531 979.96 103.391 979.942C104.251 979.923 105.222 980.062 106.304 980.358C107.385 980.654 108.331 981.134 109.139 981.798C110.756 983.09 112.159 984.654 113.347 986.489C114.535 988.324 115.273 990.063 115.561 991.706L115.551 983.26C115.551 983.19 115.564 983.05 115.59 982.84C114.417 982.421 113.361 981.793 112.422 980.955C111.508 980.116 110.686 978.832 109.954 977.101C109.223 975.371 108.726 973.841 108.464 972.513L108.031 970.519C108.162 970.484 108.344 970.423 108.578 970.335C108.813 970.247 109.262 970.142 109.926 970.019C110.591 969.896 111.229 969.834 111.841 969.833C112.454 969.832 113.151 969.945 113.933 970.172C114.715 970.398 115.393 970.773 115.967 971.297C117.245 972.415 118.328 973.874 119.216 975.675C120.104 977.475 120.549 978.882 120.55 979.896L120.56 988.343C120.845 986.699 121.579 984.958 122.763 983.12C123.946 981.283 125.345 979.716 126.959 978.42C127.766 977.755 128.697 977.273 129.752 976.974C130.807 976.676 131.803 976.544 132.741 976.577C133.679 976.611 134.559 976.689 135.38 976.811C136.201 976.932 136.846 977.063 137.315 977.202L138.058 977.463C138.006 977.708 137.935 978.049 137.844 978.487C137.754 978.924 137.527 979.755 137.163 980.979C136.8 982.204 136.404 983.341 135.975 984.391C135.547 985.441 134.968 986.543 134.24 987.698C133.512 988.853 132.744 989.763 131.937 990.429Z" fill="#7BE669"/>
</g>
<g clip-path="url(#clip14)">
<path fill-rule="evenodd" clip-rule="evenodd" d="M40.6115 522.954C45.2263 522.954 49.6519 524.546 52.9145 527.379C56.1771 530.211 58.0096 534.053 58.0088 538.057L58.0064 549.802L44.4728 549.8C39.858 549.799 35.4325 548.207 32.1698 545.375C28.9072 542.542 27.0747 538.701 27.0755 534.696L27.0772 526.307L0.0100071 526.302L0.01068 522.946L15.4777 522.949L15.4793 514.56C15.4801 510.555 17.3142 506.714 20.5779 503.883C23.8417 501.051 28.2679 499.461 32.8827 499.462L46.4163 499.465L46.414 511.21C46.413 515.955 43.891 520.186 39.9503 522.953L40.6115 522.954ZM34.2461 526.798L45.8443 536.867L43.1061 539.243L31.5079 529.173L34.2461 526.798ZM19.9095 520.084L31.5118 510.019L34.2489 512.395L22.6467 522.46L19.9095 520.084Z" fill="#7BE669"/>
</g>
<path d="M62.5174 206.243H56.1828C50.3027 206.243 44.6634 204.578 40.5056 201.613C36.3477 198.649 34.0118 194.628 34.0118 190.436V188.178H30.8446V199.469H8.6736C6.99356 199.469 5.38235 198.993 4.19438 198.146C3.00642 197.299 2.33903 196.15 2.33903 194.952V176.887C2.33903 175.689 3.00642 174.541 4.19438 173.694C5.38235 172.847 6.99356 172.371 8.6736 172.371H30.8446V183.662H40.3464C46.2265 183.662 51.8658 185.327 56.0236 188.291C60.1815 191.256 62.5174 195.276 62.5174 199.469V206.243ZM65.6847 171.242C65.6877 173.952 64.7776 176.622 63.0309 179.029C61.2841 181.435 58.752 183.507 55.6475 185.071C51.2495 182.685 45.8729 181.396 40.3464 181.403H37.1791V180.274C37.1791 175.783 39.6818 171.475 44.1367 168.299C48.5915 165.123 54.6336 163.338 60.9337 163.338H65.6847V171.242Z" fill="#7BE669"/>
<path d="M1357.6 963.191V969.32C1357.6 975.009 1355.88 980.466 1352.82 984.489C1349.75 988.512 1345.6 990.772 1341.27 990.772H1338.93V993.837H1350.6V1015.29C1350.6 1016.91 1350.11 1018.47 1349.23 1019.62C1348.36 1020.77 1347.17 1021.42 1345.93 1021.42H1327.26C1326.02 1021.42 1324.84 1020.77 1323.96 1019.62C1323.09 1018.47 1322.6 1016.91 1322.6 1015.29V993.837H1334.26V984.643C1334.26 978.953 1335.99 973.497 1339.05 969.474C1342.11 965.451 1346.27 963.191 1350.6 963.191H1357.6ZM1321.43 960.126C1324.23 960.123 1326.99 961.004 1329.48 962.694C1331.96 964.384 1334.1 966.834 1335.72 969.838C1333.25 974.093 1331.92 979.295 1331.93 984.643V987.707H1330.76C1326.12 987.707 1321.67 985.286 1318.39 980.975C1315.1 976.665 1313.26 970.819 1313.26 964.723V960.126H1321.43Z" fill="#7BE669"/>
<path fill-rule="evenodd" clip-rule="evenodd" d="M41.6117 131.985C46.2265 131.985 50.6521 133.577 53.9147 136.41C57.1773 139.242 59.0098 143.084 59.009 147.089L59.0066 158.834L45.473 158.831C40.8582 158.83 36.4326 157.238 33.17 154.406C29.9074 151.573 28.0749 147.732 28.0757 143.727L28.0774 135.338L1.01019 135.333L1.01086 131.977L16.4778 131.98L16.4795 123.591C16.4803 119.586 18.3143 115.745 21.5781 112.914C24.8419 110.082 29.268 108.492 33.8829 108.493L47.4165 108.496L47.4141 120.241C47.4132 124.986 44.8912 129.217 40.9505 131.985L41.6117 131.985ZM35.2462 135.829L46.8444 145.898L44.1063 148.274L32.5081 138.204L35.2462 135.829ZM20.9097 129.115L32.5119 119.05L35.2491 121.426L23.6469 131.491L20.9097 129.115Z" fill="#7BE669"/>
<g clip-path="url(#clip15)">
<path d="M10.6468 464.136L12.3658 474.257L16.9636 474.762L21.4169 460.191L17.6955 474.841L25.3055 475.679L30.7342 464.24L26.0639 475.762L33.1973 476.546L40.3017 471.31L34.1935 476.656L50.0093 478.394C50.0093 478.394 33.7855 458.511 20.5411 457.347C20.3078 457.326 20.0953 457.319 19.8691 457.301C20.1047 458.883 19.6052 460.453 18.3691 461.469C16.3302 463.145 13.0745 462.675 11.0968 460.422C10.5311 459.78 10.1129 459.029 9.87073 458.222C2.36026 461.191 6.28742 469.686 6.79688 473.644L11.6503 474.178L10.6468 464.136" fill="#7BE669"/>
<path d="M40.3521 485.686C45.9851 481.957 50.0093 478.395 50.0093 478.395L34.1429 477.348L39.3819 483.69L33.1421 477.281L25.9843 476.811L28.8909 488.996L25.2246 476.758L17.5892 476.256L19.0982 491.366L16.8555 476.207L12.2433 475.903L9.05068 485.593L11.5272 475.856L6.65954 475.535C5.23245 480.534 -3.12533 492.182 17.8124 494.022C21.8841 494.379 26.493 493.038 30.9275 491.012C30.9108 489.878 31.2849 488.894 32.077 488.278C32.3299 488.082 32.6142 487.937 32.9171 487.835C32.6688 486.365 33.0121 485.042 33.9898 484.282C35.5662 483.056 38.2556 483.704 40.3521 485.686" fill="#7BE669"/>
<path d="M6.79734 473.645L-0.295185 472.865L-0.458544 475.066L6.65904 475.536C6.75705 475.191 6.82305 474.877 6.84358 474.601C6.86411 474.326 6.8436 474.002 6.79734 473.645" fill="#7BE669"/>
</g>
<g clip-path="url(#clip16)">
<path d="M17.5223 888.655C17.7924 888.884 27.5178 898.33 27.5178 898.33L28.3063 896.699C28.8227 895.766 29.5324 896.001 30.1668 896.218C30.9835 896.434 37.3976 898.02 37.3976 898.02C37.3976 898.02 36.284 893.603 36.0073 892.677C35.7435 891.983 36.2665 891.747 36.8002 891.51C37.3339 891.273 40.2596 890.087 40.2596 890.087C40.2596 890.087 33.7935 885.262 33.5341 885.033C32.7215 884.112 33.5165 883.167 34.5905 883.39C35.6623 883.38 48.5051 885.829 48.5051 885.829C48.5051 885.829 46.6138 883.052 46.0691 882.128C45.5267 881.437 45.5222 880.964 46.5896 880.49C47.389 880.01 55.1051 876.452 55.1051 876.452C55.1051 876.452 47.3232 873.04 46.5149 872.584C45.4388 872.129 45.4344 871.665 45.9636 870.955C46.4908 870.022 48.3293 867.212 48.3293 867.212C48.3293 867.212 35.5349 869.887 34.4631 869.896C33.3935 870.138 32.5809 869.217 33.3759 868.273C33.6416 868.038 40.0049 863.1 40.0049 863.1C40.0049 863.1 37.0679 861.966 36.5298 861.739C35.9918 861.512 35.4644 861.284 35.715 860.586C35.9741 859.646 37.0042 855.219 37.0042 855.219C37.0042 855.219 30.6211 856.909 29.8087 857.148C29.1677 857.377 28.4733 857.624 27.9394 856.701L27.1095 855.084C27.1095 855.084 17.564 864.691 17.2984 864.934C16.7669 865.412 16.5033 865.87 14.8913 865.429C13.2791 864.97 11.1205 864.525 11.1205 864.525C11.1205 864.525 13.3582 873.341 13.635 874.276C13.7391 875.082 13.3831 875.976 12.3113 875.986C11.2395 875.995 0.216405 875.554 0.216405 875.554L0.24269 878.338C0.24269 878.338 11.2449 877.703 12.3274 877.693C13.4099 877.684 13.7719 878.562 13.6832 879.389C13.4241 880.319 11.3532 889.173 11.3532 889.173C11.3532 889.173 13.5031 888.69 15.1064 888.212C16.7097 887.734 16.982 888.195 17.5223 888.655V888.655Z" fill="#7BE669"/>
</g>
<path d="M17.5022 400.698C17.7723 400.928 27.4977 410.374 27.4977 410.374L28.2862 408.742C28.8026 407.81 29.5122 408.045 30.1467 408.262C30.9634 408.477 37.3775 410.063 37.3775 410.063C37.3775 410.063 36.2639 405.646 35.9872 404.721C35.7234 404.027 36.2463 403.79 36.7801 403.553C37.3138 403.317 40.2395 402.131 40.2395 402.131C40.2395 402.131 33.7734 397.306 33.514 397.076C32.7014 396.155 33.4964 395.211 34.5704 395.434C35.6421 395.424 48.4849 397.872 48.4849 397.872C48.4849 397.872 46.5936 395.095 46.049 394.172C45.5065 393.481 45.502 393.007 46.5695 392.534C47.3688 392.054 55.0849 388.496 55.0849 388.496C55.0849 388.496 47.303 385.084 46.4948 384.627C45.4186 384.173 45.4143 383.709 45.9435 382.999C46.4706 382.066 48.3092 379.256 48.3092 379.256C48.3092 379.256 35.5147 381.931 34.443 381.94C33.3734 382.182 32.5608 381.261 33.3557 380.316C33.6215 380.082 39.9847 375.144 39.9847 375.144C39.9847 375.144 37.0478 374.01 36.5097 373.782C35.9716 373.555 35.4442 373.328 35.6949 372.629C35.954 371.69 36.9841 367.263 36.9841 367.263C36.9841 367.263 30.6009 368.953 29.7886 369.192C29.1476 369.42 28.4532 369.668 27.9193 368.744L27.0894 367.128C27.0894 367.128 17.5439 376.734 17.2782 376.978C16.7468 377.456 16.4831 377.913 14.8711 377.473C13.259 377.013 11.1003 376.569 11.1003 376.569C11.1003 376.569 13.338 385.384 13.6148 386.319C13.7189 387.126 13.3629 388.02 12.2911 388.029C11.2193 388.039 0.19626 387.598 0.19626 387.598L0.222545 390.382C0.222545 390.382 11.2247 389.746 12.3072 389.737C13.3898 389.727 13.7518 390.606 13.6631 391.433C13.4039 392.363 11.333 401.217 11.333 401.217C11.333 401.217 13.4829 400.734 15.0862 400.256C16.6896 399.777 16.9619 400.239 17.5022 400.698V400.698Z" fill="#7BE669"/>
<g clip-path="url(#clip17)">
<path d="M55.7332 919.163C56.3704 920.054 56.6458 921.114 56.5131 922.164C56.3803 923.214 55.8476 924.19 55.0047 924.928L44.0212 934.537C41.2585 936.953 37.789 938.617 34.0131 939.339C30.2371 940.06 26.3088 939.808 22.6814 938.613C19.054 937.418 15.8755 935.328 13.5128 932.584C11.1501 929.841 9.69957 926.555 9.32854 923.107L2.427 923.025C1.84506 923.018 1.28958 922.804 0.882769 922.43C0.475956 922.056 0.251126 921.553 0.257748 921.031C0.264369 920.51 0.501898 920.012 0.918075 919.648C1.33425 919.284 1.89499 919.083 2.47693 919.09L9.37847 919.172C9.83687 915.734 11.3704 912.483 13.802 909.797C16.2336 907.11 19.4641 905.096 23.1207 903.987C26.7773 902.879 30.7109 902.721 34.4674 903.531C38.2239 904.342 41.6501 906.089 44.3507 908.569L55.087 918.437C55.3291 918.659 55.5456 918.902 55.7332 919.163V919.163ZM32.4366 921.414C32.4433 920.892 32.2184 920.389 31.8116 920.015C31.4048 919.641 30.8493 919.427 30.2674 919.42L13.7962 919.224C13.5801 920.528 13.5633 921.852 13.7462 923.16L30.2175 923.355C30.7994 923.362 31.3601 923.161 31.7763 922.797C32.1925 922.433 32.43 921.935 32.4366 921.414Z" fill="#7BE669"/>
</g>
<g clip-path="url(#clip18)">
<path d="M56.5832 731.664C57.2515 732.499 57.5413 733.492 57.4038 734.476C57.2663 735.46 56.7099 736.373 55.8285 737.063L44.343 746.051C41.4541 748.311 37.8241 749.865 33.8719 750.536C29.9198 751.207 25.8067 750.966 22.0075 749.842C18.2082 748.717 14.8776 746.755 12.4002 744.182C9.92283 741.609 8.39958 738.529 8.00632 735.298L0.780789 735.212C0.171528 735.205 -0.410312 735.004 -0.836739 734.653C-1.26317 734.302 -1.49925 733.831 -1.49305 733.342C-1.48684 732.853 -1.23886 732.387 -0.803665 732.046C-0.368466 731.706 0.218301 731.518 0.827563 731.526L8.0531 731.612C8.5282 728.391 10.1291 725.349 12.6711 722.835C15.213 720.321 18.5924 718.439 22.419 717.405C26.2457 716.371 30.3636 716.228 34.2975 716.993C38.2314 717.757 41.8209 719.397 44.6517 721.725L55.9056 730.983C56.1593 731.191 56.3863 731.42 56.5832 731.664V731.664ZM32.1965 733.742C32.2027 733.253 31.9666 732.781 31.5402 732.43C31.1138 732.08 30.5319 731.879 29.9227 731.871L12.6782 731.666C12.4538 732.887 12.438 734.127 12.6314 735.353L29.8759 735.558C30.4851 735.565 31.0719 735.378 31.5071 735.037C31.9423 734.697 32.1903 734.231 32.1965 733.742Z" fill="#7BE669"/>
</g>
<path fill-rule="evenodd" clip-rule="evenodd" d="M-0.10519 307.259L-0.0736661 303.822L11.52 303.921C12.0032 302.54 13.0389 301.333 14.4336 300.441C13.8618 299.402 13.5489 298.259 13.5598 297.063C13.6033 292.319 18.7049 288.513 24.9474 288.566C28.1636 288.594 31.0605 289.641 33.1036 291.301C34.3395 290.713 35.8038 290.378 37.3712 290.392C41.6187 290.428 45.0671 293.007 45.2256 296.202C50.487 297.662 54.2336 301.517 54.1924 306.006C54.1512 310.496 50.3345 314.286 45.0472 315.655C44.8302 318.847 41.335 321.366 37.0875 321.33C35.5201 321.316 34.0622 320.957 32.8373 320.348C30.764 321.972 27.8483 322.969 24.6321 322.942C18.3897 322.888 13.3587 318.995 13.4022 314.251C13.4132 313.054 13.7471 311.918 14.3378 310.888C12.9597 309.972 11.9462 308.748 11.4885 307.359L-0.10519 307.259Z" fill="#7BE669"/>
<path fill-rule="evenodd" clip-rule="evenodd" d="M21.9549 248.203C21.8599 245.117 24.6268 242.333 28.227 242.333C31.5726 242.333 34.499 244.786 34.499 248.203C36.8716 245.923 40.9234 245.829 43.4322 248.142C45.7045 250.238 46.0736 253.783 43.3677 256.385C46.6955 256.296 49.7311 258.839 49.7311 262.172C49.7311 265.25 47.0807 267.958 43.3677 267.958C45.9858 270.374 45.7994 274.016 43.4322 276.2C41.0703 278.377 37.1243 278.564 34.499 276.14C34.499 279.563 31.5637 282.011 28.227 282.011C24.6358 282.011 21.8563 279.232 21.9549 276.14C19.1594 278.615 15.3137 278.316 13.0199 276.2C10.5147 273.887 10.6114 270.149 13.0862 267.958C9.3875 267.958 6.72278 265.263 6.72278 262.172C6.72278 258.854 9.73695 256.298 13.0862 256.385C10.4681 253.97 10.6527 250.326 13.0199 248.142C15.38 245.965 19.3296 245.781 21.9549 248.203ZM28.227 256.385C31.6891 256.385 34.499 258.978 34.499 262.172C34.499 265.366 31.6891 267.958 28.227 267.958C24.7648 267.958 21.9549 265.366 21.9549 262.172C21.9549 258.978 24.7648 256.385 28.227 256.385Z" fill="#7BE669"/>
<path fill-rule="evenodd" clip-rule="evenodd" d="M-0.0386613 222.967L0.0061075 219.015L8.59277 219.106C9.6594 213.513 14.9002 209.292 21.1483 209.358C24.4332 209.393 23.7261 209.429 49.1837 219.687C49.1834 219.719 50.4721 220.141 50.4564 221.526C50.4408 222.904 49.1469 223.309 49.1465 223.34C25.5473 232.291 24.7514 233.111 20.8797 233.07C14.6316 233.004 9.48766 228.673 8.548 223.058L-0.0386613 222.967Z" fill="#7BE669"/>
<path d="M34.2734 449.997C32.7914 448.283 31.8517 446.455 31.4541 444.513C31.0566 442.572 31.2916 441.11 32.1592 440.126C32.1592 440.101 32.2315 440.019 32.3761 439.88C32.5207 439.742 32.6563 439.597 32.7828 439.446C32.9093 439.294 32.9726 439.143 32.9726 438.992L17.7906 438.991C19.6341 440.101 21.1703 441.361 22.3993 442.773C23.086 443.555 23.583 444.456 23.8902 445.477C24.1974 446.499 24.3329 447.463 24.2967 448.371C24.2606 449.278 24.1792 450.129 24.0526 450.923C23.9261 451.718 23.7724 452.342 23.5917 452.796L23.3748 453.514C23.1579 453.438 22.8687 453.319 22.5072 453.155C22.1458 452.991 21.468 452.657 20.474 452.152C19.4799 451.648 18.5311 451.131 17.6274 450.602C16.7238 450.072 15.7568 449.41 14.7267 448.616C13.6965 447.822 12.838 447.034 12.1513 446.252C9.33191 442.974 7.84997 440.554 7.70546 438.991L3.47619 438.991C2.53636 438.99 1.72305 438.757 1.03627 438.291C0.349485 437.824 0.00610986 437.251 0.0061409 436.57C0.00617193 435.889 0.3496 435.316 1.03642 434.849C1.72325 434.383 2.53658 434.15 3.47641 434.15L7.05502 434.15C6.83819 432.965 7.00092 431.584 7.5432 430.009C8.08549 428.433 8.91695 426.977 10.0376 425.64C10.6883 424.859 11.583 424.115 12.7216 423.409C13.8603 422.703 14.999 422.13 16.1377 421.689C17.2763 421.247 18.3879 420.863 19.4723 420.535C20.5568 420.207 21.4153 419.974 22.0479 419.836C22.6805 419.697 23.0148 419.628 23.051 419.628C23.1594 419.829 23.2769 420.094 23.4034 420.422C23.5299 420.75 23.7106 421.386 23.9455 422.332C24.1804 423.277 24.3069 424.185 24.3249 425.055C24.343 425.925 24.1802 426.876 23.8368 427.91C23.4934 428.944 22.924 429.826 22.1287 430.558C21.3334 431.289 19.1464 432.486 15.5678 434.15L29.5026 434.151C29.5026 433.999 29.4394 433.848 29.3129 433.697C29.1864 433.546 29.0508 433.401 28.9062 433.262C28.7617 433.123 28.6713 433.041 28.6352 433.016C27.8038 432.033 27.587 430.57 27.9847 428.629C28.3824 426.688 29.3223 424.86 30.8045 423.145C31.4913 422.364 32.4312 421.62 33.6241 420.914C34.817 420.208 35.9556 419.647 37.0401 419.231C38.1245 418.815 39.2903 418.437 40.5374 418.097C41.7845 417.756 42.643 417.536 43.113 417.435C43.5829 417.334 43.9444 417.259 44.1974 417.208C44.2697 417.385 44.36 417.63 44.4685 417.946C44.5769 418.261 44.7124 418.872 44.875 419.78C45.0377 420.688 45.128 421.557 45.146 422.389C45.1641 423.221 45.0194 424.161 44.7121 425.207C44.4048 426.253 43.9078 427.167 43.2209 427.949C41.8834 429.512 40.2657 430.867 38.3679 432.014C36.4701 433.161 34.6718 433.874 32.9728 434.151L41.7024 434.151C41.7747 434.151 41.9193 434.164 42.1362 434.189C42.57 433.054 43.2207 432.033 44.0883 431.126C44.9559 430.243 46.2844 429.449 48.0737 428.743C49.863 428.037 51.4445 427.558 52.8181 427.306L54.8785 426.89C54.9147 427.016 54.9779 427.193 55.0683 427.42C55.1587 427.647 55.2671 428.082 55.3936 428.725C55.52 429.368 55.5833 429.985 55.5833 430.578C55.5832 431.17 55.4657 431.845 55.2307 432.601C54.9957 433.358 54.6071 434.013 54.0649 434.568C52.9081 435.803 51.3989 436.849 49.5373 437.707C47.6756 438.564 46.2207 438.992 45.1724 438.992L36.4427 438.992C38.1417 439.269 39.94 439.982 41.8377 441.129C43.7354 442.276 45.3529 443.631 46.6903 445.195C47.3771 445.976 47.874 446.878 48.1813 447.899C48.4885 448.92 48.624 449.884 48.5878 450.792C48.5516 451.7 48.4702 452.551 48.3437 453.345C48.2171 454.139 48.0815 454.763 47.9369 455.217L47.6658 455.936C47.4128 455.885 47.0603 455.816 46.6085 455.728C46.1566 455.639 45.2981 455.419 44.033 455.066C42.7679 454.713 41.5931 454.328 40.5087 453.912C39.4243 453.496 38.2856 452.935 37.0928 452.229C35.9 451.523 34.9602 450.779 34.2734 449.997Z" fill="#7BE669"/>
<path d="M56.2994 341.945C56.9676 342.78 57.2575 343.773 57.12 344.757C56.9825 345.741 56.4261 346.654 55.5446 347.344L44.0592 356.332C41.1702 358.592 37.5402 360.146 33.5881 360.817C29.636 361.488 25.5229 361.247 21.7236 360.123C17.9243 358.998 14.5938 357.036 12.1164 354.463C9.63897 351.889 8.11573 348.81 7.72247 345.579L0.496932 345.493C-0.11233 345.486 -0.694169 345.285 -1.1206 344.934C-1.54702 344.583 -1.78311 344.112 -1.7769 343.623C-1.7707 343.134 -1.52272 342.668 -1.08752 342.327C-0.652323 341.987 -0.065556 341.799 0.543705 341.807L7.76924 341.892C8.24435 338.672 9.84527 335.63 12.3872 333.116C14.9292 330.602 18.3085 328.72 22.1352 327.686C25.9618 326.652 30.0797 326.509 34.0137 327.273C37.9476 328.038 41.5371 329.678 44.3678 332.006L55.6218 341.264C55.8755 341.472 56.1025 341.701 56.2994 341.945V341.945ZM31.9126 344.023C31.9188 343.534 31.6828 343.062 31.2563 342.711C30.8299 342.361 30.2481 342.159 29.6388 342.152L12.3943 341.947C12.1699 343.168 12.1542 344.408 12.3475 345.634L29.592 345.839C30.2013 345.846 30.7881 345.659 31.2233 345.318C31.6585 344.978 31.9064 344.512 31.9126 344.023Z" fill="#7BE669"/>
<path fill-rule="evenodd" clip-rule="evenodd" d="M1438.12 371.056L1438.09 374.496L1426.55 374.396C1426.07 375.778 1425.04 376.985 1423.65 377.878C1424.22 378.918 1424.53 380.061 1424.52 381.258C1424.48 386.004 1419.4 389.813 1413.19 389.759C1409.99 389.732 1407.11 388.683 1405.08 387.023C1403.85 387.611 1402.39 387.946 1400.83 387.933C1396.6 387.896 1393.17 385.316 1393.01 382.119C1387.78 380.659 1384.05 376.801 1384.09 372.309C1384.13 367.818 1387.93 364.025 1393.19 362.655C1393.41 359.462 1396.89 356.941 1401.11 356.978C1402.67 356.991 1404.12 357.351 1405.34 357.96C1407.4 356.335 1410.31 355.337 1413.51 355.365C1419.72 355.418 1424.72 359.314 1424.68 364.061C1424.67 365.258 1424.34 366.395 1423.75 367.425C1425.12 368.342 1426.13 369.566 1426.58 370.956L1438.12 371.056Z" fill="#7BE669"/>
<path fill-rule="evenodd" clip-rule="evenodd" d="M1416.05 430.435C1416.15 433.522 1413.38 436.306 1409.78 436.306C1406.43 436.306 1403.51 433.853 1403.51 430.435C1401.13 432.715 1397.08 432.809 1394.57 430.497C1392.3 428.4 1391.93 424.856 1394.64 422.253C1391.31 422.343 1388.27 419.8 1388.27 416.467C1388.27 413.388 1390.93 410.68 1394.64 410.68C1392.02 408.265 1392.21 404.623 1394.57 402.439C1396.94 400.261 1400.88 400.075 1403.51 402.498C1403.51 399.076 1406.44 396.628 1409.78 396.628C1413.37 396.628 1416.15 399.407 1416.05 402.498C1418.85 400.023 1422.69 400.323 1424.99 402.439C1427.49 404.752 1427.39 408.49 1424.92 410.68C1428.62 410.68 1431.28 413.375 1431.28 416.467C1431.28 419.785 1428.27 422.341 1424.92 422.253C1427.54 424.669 1427.35 428.313 1424.99 430.497C1422.63 432.674 1418.68 432.857 1416.05 430.435ZM1409.78 422.253C1406.32 422.253 1403.51 419.661 1403.51 416.467C1403.51 413.273 1406.32 410.68 1409.78 410.68C1413.24 410.68 1416.05 413.273 1416.05 416.467C1416.05 419.661 1413.24 422.253 1409.78 422.253Z" fill="#7BE669"/>
<path fill-rule="evenodd" clip-rule="evenodd" d="M1438.06 455.395L1438.01 459.349L1429.47 459.258C1428.41 464.854 1423.19 469.077 1416.97 469.011C1413.7 468.976 1414.41 468.94 1389.08 458.676C1389.08 458.645 1387.79 458.222 1387.81 456.836C1387.82 455.458 1389.11 455.053 1389.11 455.021C1412.6 446.065 1413.39 445.245 1417.24 445.286C1423.46 445.352 1428.58 449.686 1429.51 455.303L1438.06 455.395Z" fill="#7BE669"/>
<path fill-rule="evenodd" clip-rule="evenodd" d="M1398.28 288.78C1393.75 288.81 1389.39 287.202 1386.17 284.311C1382.95 281.42 1381.12 277.483 1381.09 273.365L1381.01 261.288L1394.29 261.202C1398.82 261.173 1403.18 262.78 1406.4 265.671C1409.62 268.562 1411.45 272.5 1411.48 276.618L1411.54 285.244L1438.1 285.071L1438.13 288.522L1422.95 288.62L1423.01 297.246C1423.04 301.364 1421.26 305.325 1418.08 308.258C1414.9 311.19 1410.56 312.854 1406.04 312.884L1392.75 312.97L1392.67 300.894C1392.64 296.015 1395.08 291.648 1398.93 288.776L1398.28 288.78ZM1404.5 284.786L1393.04 274.508L1395.71 272.048L1407.17 282.325L1404.5 284.786ZM1418.62 291.595L1407.3 302.02L1404.6 299.595L1415.91 289.17L1418.62 291.595Z" fill="#7BE669"/>
<path d="M1377.42 471.146H1383.72C1389.57 471.146 1395.18 472.799 1399.32 475.741C1403.45 478.683 1405.78 482.673 1405.78 486.834V489.075H1408.93V477.869H1430.98C1432.65 477.869 1434.26 478.342 1435.44 479.182C1436.62 480.023 1437.28 481.163 1437.28 482.352V500.281C1437.28 501.47 1436.62 502.61 1435.44 503.45C1434.26 504.291 1432.65 504.763 1430.98 504.763H1408.93V493.557H1399.48C1393.63 493.557 1388.02 491.905 1383.88 488.962C1379.75 486.02 1377.42 482.03 1377.42 477.869V471.146ZM1374.27 505.884C1374.27 503.194 1375.17 500.544 1376.91 498.155C1378.65 495.767 1381.17 493.71 1384.26 492.159C1388.63 494.527 1393.98 495.806 1399.48 495.799H1402.63V496.919C1402.63 501.377 1400.14 505.652 1395.71 508.805C1391.28 511.957 1385.26 513.728 1379 513.728H1374.27V505.884Z" fill="#7BE669"/>
<path d="M1405.19 221.168C1406.66 222.884 1407.6 224.713 1408 226.655C1408.39 228.598 1408.16 230.061 1407.29 231.045C1407.29 231.07 1407.22 231.152 1407.08 231.291C1406.93 231.43 1406.8 231.575 1406.67 231.726C1406.55 231.877 1406.48 232.029 1406.48 232.18L1421.59 232.181C1419.76 231.071 1418.23 229.809 1417.01 228.397C1416.32 227.614 1415.83 226.713 1415.52 225.691C1415.22 224.669 1415.08 223.704 1415.12 222.796C1415.15 221.888 1415.23 221.036 1415.36 220.242C1415.49 219.447 1415.64 218.823 1415.82 218.369L1416.04 217.65C1416.25 217.725 1416.54 217.845 1416.9 218.009C1417.26 218.173 1417.93 218.508 1418.92 219.012C1419.91 219.517 1420.85 220.034 1421.75 220.564C1422.65 221.094 1423.62 221.756 1424.64 222.551C1425.67 223.345 1426.52 224.134 1427.2 224.916C1430.01 228.195 1431.48 230.617 1431.63 232.181L1435.84 232.181C1436.77 232.181 1437.58 232.415 1438.26 232.882C1438.95 233.348 1439.29 233.922 1439.29 234.603C1439.29 235.284 1438.95 235.858 1438.26 236.325C1437.58 236.792 1436.77 237.025 1435.84 237.025L1432.27 237.025C1432.49 238.21 1432.33 239.592 1431.79 241.168C1431.25 242.745 1430.42 244.202 1429.31 245.539C1428.66 246.321 1427.77 247.065 1426.64 247.771C1425.5 248.478 1424.37 249.051 1423.24 249.493C1422.1 249.934 1421 250.319 1419.92 250.647C1418.84 250.975 1417.98 251.208 1417.36 251.347C1416.73 251.485 1416.39 251.555 1416.36 251.555C1416.25 251.353 1416.13 251.088 1416.01 250.76C1415.88 250.432 1415.7 249.795 1415.47 248.849C1415.23 247.903 1415.11 246.995 1415.09 246.125C1415.07 245.254 1415.23 244.302 1415.58 243.268C1415.92 242.233 1416.48 241.351 1417.28 240.619C1418.07 239.887 1420.24 238.689 1423.8 237.024L1409.94 237.024C1409.94 237.175 1410 237.327 1410.13 237.478C1410.25 237.629 1410.39 237.774 1410.53 237.913C1410.67 238.052 1410.76 238.134 1410.8 238.159C1411.63 239.143 1411.84 240.606 1411.45 242.549C1411.05 244.491 1410.12 246.32 1408.64 248.035C1407.96 248.817 1407.02 249.561 1405.84 250.268C1404.65 250.974 1403.52 251.535 1402.44 251.952C1401.36 252.368 1400.2 252.746 1398.96 253.087C1397.72 253.427 1396.86 253.648 1396.39 253.749C1395.93 253.85 1395.57 253.925 1395.32 253.976C1395.24 253.799 1395.15 253.553 1395.05 253.238C1394.94 252.922 1394.8 252.311 1394.64 251.403C1394.48 250.494 1394.39 249.624 1394.37 248.792C1394.35 247.959 1394.5 247.019 1394.8 245.972C1395.11 244.926 1395.6 244.011 1396.29 243.229C1397.62 241.665 1399.23 240.309 1401.12 239.161C1403 238.014 1404.79 237.301 1406.48 237.024L1397.8 237.023C1397.73 237.023 1397.58 237.011 1397.37 236.985C1396.93 238.121 1396.29 239.142 1395.42 240.05C1394.56 240.933 1393.24 241.728 1391.46 242.434C1389.68 243.14 1388.1 243.62 1386.74 243.872L1384.69 244.288C1384.65 244.162 1384.59 243.985 1384.5 243.758C1384.41 243.531 1384.3 243.096 1384.17 242.453C1384.05 241.81 1383.99 241.191 1383.99 240.599C1383.99 240.006 1384.1 239.331 1384.34 238.574C1384.57 237.817 1384.96 237.162 1385.5 236.607C1386.65 235.37 1388.15 234.324 1390 233.466C1391.85 232.608 1393.3 232.18 1394.34 232.18L1403.03 232.18C1401.34 231.902 1399.55 231.19 1397.66 230.042C1395.77 228.894 1394.17 227.538 1392.83 225.974C1392.15 225.192 1391.66 224.29 1391.35 223.268C1391.05 222.246 1390.91 221.281 1390.95 220.373C1390.98 219.465 1391.06 218.614 1391.19 217.819C1391.32 217.024 1391.45 216.4 1391.59 215.946L1391.86 215.227C1392.12 215.277 1392.47 215.347 1392.92 215.435C1393.37 215.523 1394.22 215.744 1395.48 216.097C1396.74 216.451 1397.91 216.835 1398.99 217.252C1400.06 217.668 1401.2 218.229 1402.38 218.936C1403.57 219.642 1404.51 220.386 1405.19 221.168Z" fill="#7BE669"/>
<path fill-rule="evenodd" clip-rule="evenodd" d="M1397.89 545.176C1393.3 545.176 1388.89 543.583 1385.65 540.749C1382.4 537.915 1380.58 534.071 1380.58 530.064L1380.58 518.313L1394.05 518.315C1398.64 518.316 1403.04 519.909 1406.29 522.743C1409.53 525.577 1411.36 529.42 1411.36 533.428L1411.36 541.821L1438.29 541.826L1438.29 545.184L1422.9 545.181L1422.9 553.575C1422.9 557.582 1421.07 561.425 1417.82 564.258C1414.58 567.091 1410.17 568.682 1405.58 568.681L1392.11 568.678L1392.11 556.927C1392.12 552.179 1394.62 547.946 1398.55 545.177L1397.89 545.176ZM1404.22 541.33L1392.68 531.255L1395.41 528.878L1406.95 538.953L1404.22 541.33ZM1418.49 548.048L1406.94 558.118L1404.22 555.74L1415.76 545.67L1418.49 548.048Z" fill="#7BE669"/>
<path fill-rule="evenodd" clip-rule="evenodd" d="M1398.59 899.89C1394 899.889 1389.6 898.297 1386.35 895.463C1383.1 892.628 1381.28 888.785 1381.28 884.778L1381.28 873.027L1394.75 873.029C1399.34 873.03 1403.75 874.623 1406.99 877.457C1410.24 880.291 1412.06 884.134 1412.06 888.141L1412.06 896.535L1438.99 896.54L1438.99 899.898L1423.6 899.895L1423.6 908.289C1423.6 912.296 1421.78 916.139 1418.53 918.972C1415.28 921.804 1410.88 923.395 1406.28 923.395L1392.82 923.392L1392.82 911.641C1392.82 906.893 1395.33 902.66 1399.25 899.89L1398.59 899.89ZM1404.93 896.044L1393.39 885.969L1396.11 883.592L1407.65 893.667L1404.93 896.044ZM1419.19 902.761L1407.65 912.832L1404.92 910.454L1416.47 900.384L1419.19 902.761Z" fill="#7BE669"/>
<path d="M1427.71 604.026L1425.99 593.9L1421.42 593.394L1416.99 607.973L1420.69 593.315L1413.12 592.477L1407.72 603.923L1412.36 592.394L1405.27 591.61L1398.2 596.848L1404.27 591.5L1388.54 589.76C1388.54 589.76 1404.68 609.655 1417.86 610.819C1418.09 610.84 1418.3 610.847 1418.53 610.865C1418.29 609.282 1418.79 607.711 1420.02 606.694C1422.05 605.018 1425.29 605.488 1427.26 607.742C1427.82 608.385 1428.24 609.136 1428.48 609.944C1435.95 606.972 1432.04 598.473 1431.54 594.513L1426.71 593.979L1427.71 604.026" fill="#7BE669"/>
<path d="M1398.15 582.464C1392.54 586.195 1388.54 589.76 1388.54 589.76L1404.32 590.807L1399.11 584.462L1405.32 590.874L1412.44 591.344L1409.55 579.152L1413.2 591.397L1420.8 591.899L1419.3 576.781L1421.53 591.948L1426.12 592.253L1429.29 582.557L1426.83 592.3L1431.67 592.621C1433.09 587.619 1441.41 575.965 1420.57 574.124C1416.52 573.767 1411.94 575.108 1407.52 577.136C1407.54 578.27 1407.17 579.255 1406.38 579.872C1406.13 580.067 1405.85 580.212 1405.54 580.314C1405.79 581.785 1405.45 583.109 1404.48 583.869C1402.91 585.096 1400.23 584.448 1398.15 582.464" fill="#7BE669"/>
<path d="M1431.54 594.512L1438.59 595.293L1438.76 593.091L1431.67 592.62C1431.58 592.965 1431.51 593.279 1431.49 593.555C1431.47 593.831 1431.49 594.155 1431.54 594.512" fill="#7BE669"/>
<path d="M1420.86 179.274C1420.59 179.045 1410.92 169.594 1410.92 169.594L1410.13 171.226C1409.62 172.159 1408.91 171.924 1408.28 171.707C1407.47 171.491 1401.09 169.904 1401.09 169.904C1401.09 169.904 1402.19 174.324 1402.47 175.25C1402.73 175.944 1402.21 176.181 1401.68 176.418C1401.15 176.654 1398.24 177.841 1398.24 177.841C1398.24 177.841 1404.67 182.668 1404.93 182.898C1405.74 183.82 1404.95 184.765 1403.88 184.542C1402.81 184.551 1390.03 182.102 1390.03 182.102C1390.03 182.102 1391.92 184.88 1392.46 185.804C1393 186.496 1393 186.969 1391.94 187.443C1391.14 187.924 1383.47 191.484 1383.47 191.484C1383.47 191.484 1391.21 194.897 1392.01 195.354C1393.08 195.809 1393.09 196.273 1392.56 196.984C1392.04 197.917 1390.21 200.728 1390.21 200.728C1390.21 200.728 1402.94 198.052 1404.01 198.043C1405.07 197.801 1405.88 198.723 1405.09 199.668C1404.82 199.902 1398.49 204.843 1398.49 204.843C1398.49 204.843 1401.41 205.978 1401.95 206.205C1402.48 206.432 1403.01 206.66 1402.76 207.359C1402.5 208.299 1401.48 212.728 1401.48 212.728C1401.48 212.728 1407.83 211.037 1408.64 210.798C1409.28 210.569 1409.97 210.322 1410.5 211.246L1411.32 212.863C1411.32 212.863 1420.82 203.251 1421.09 203.008C1421.62 202.529 1421.88 202.072 1423.48 202.513C1425.09 202.972 1427.23 203.417 1427.23 203.417C1427.23 203.417 1425.01 194.597 1424.73 193.661C1424.63 192.854 1424.98 191.96 1426.05 191.95C1427.12 191.941 1438.08 192.382 1438.08 192.382L1438.06 189.596C1438.06 189.596 1427.11 190.232 1426.03 190.242C1424.96 190.251 1424.6 189.372 1424.68 188.545C1424.94 187.614 1427 178.756 1427 178.756C1427 178.756 1424.86 179.239 1423.27 179.717C1421.67 180.196 1421.4 179.734 1420.86 179.274V179.274Z" fill="#7BE669"/>
<path d="M1420.88 667.499C1420.61 667.269 1410.94 657.818 1410.94 657.818L1410.15 659.45C1409.64 660.383 1408.93 660.148 1408.3 659.931C1407.49 659.715 1401.11 658.128 1401.11 658.128C1401.11 658.128 1402.21 662.548 1402.49 663.474C1402.75 664.168 1402.23 664.405 1401.7 664.642C1401.17 664.879 1398.26 666.065 1398.26 666.065C1398.26 666.065 1404.69 670.893 1404.95 671.123C1405.76 672.044 1404.97 672.989 1403.9 672.766C1402.83 672.776 1390.05 670.326 1390.05 670.326C1390.05 670.326 1391.94 673.105 1392.48 674.029C1393.02 674.72 1393.02 675.194 1391.96 675.668C1391.16 676.148 1383.49 679.708 1383.49 679.708C1383.49 679.708 1391.23 683.122 1392.03 683.579C1393.1 684.033 1393.11 684.498 1392.58 685.208C1392.06 686.141 1390.23 688.953 1390.23 688.953C1390.23 688.953 1402.96 686.277 1404.03 686.267C1405.09 686.026 1405.9 686.947 1405.11 687.892C1404.84 688.126 1398.51 693.067 1398.51 693.067C1398.51 693.067 1401.43 694.202 1401.97 694.429C1402.5 694.657 1403.03 694.884 1402.78 695.583C1402.52 696.523 1401.5 700.952 1401.5 700.952C1401.5 700.952 1407.85 699.262 1408.66 699.022C1409.3 698.794 1409.99 698.546 1410.52 699.47L1411.34 701.088C1411.34 701.088 1420.84 691.476 1421.11 691.232C1421.64 690.754 1421.9 690.296 1423.5 690.737C1425.11 691.197 1427.25 691.642 1427.25 691.642C1427.25 691.642 1425.03 682.821 1424.75 681.886C1424.65 681.079 1425 680.184 1426.07 680.175C1427.14 680.165 1438.1 680.606 1438.1 680.606L1438.08 677.821C1438.08 677.821 1427.13 678.457 1426.05 678.466C1424.98 678.476 1424.62 677.597 1424.7 676.769C1424.96 675.839 1427.02 666.98 1427.02 666.98C1427.02 666.98 1424.88 667.463 1423.29 667.942C1421.69 668.42 1421.42 667.958 1420.88 667.499V667.499Z" fill="#7BE669"/>
<path d="M1382.84 148.749C1382.21 147.858 1381.93 146.798 1382.06 145.747C1382.2 144.696 1382.73 143.72 1383.57 142.982L1394.5 133.367C1397.24 130.95 1400.7 129.284 1404.45 128.563C1408.21 127.841 1412.12 128.093 1415.73 129.288C1419.34 130.484 1422.5 132.575 1424.85 135.321C1427.2 138.066 1428.65 141.353 1429.02 144.803L1435.88 144.885C1436.46 144.892 1437.02 145.106 1437.42 145.48C1437.83 145.854 1438.05 146.358 1438.04 146.88C1438.04 147.402 1437.8 147.9 1437.39 148.264C1436.97 148.629 1436.41 148.83 1435.83 148.823L1428.97 148.741C1428.51 152.181 1426.99 155.433 1424.57 158.121C1422.15 160.809 1418.93 162.824 1415.29 163.933C1411.65 165.042 1407.74 165.201 1404 164.389C1400.26 163.578 1396.85 161.831 1394.17 159.349L1383.48 149.476C1383.24 149.254 1383.03 149.01 1382.84 148.749V148.749ZM1406.02 146.497C1406.02 147.02 1406.24 147.523 1406.64 147.897C1407.05 148.271 1407.6 148.485 1408.18 148.492L1424.57 148.688C1424.79 147.384 1424.8 146.059 1424.62 144.751L1408.23 144.555C1407.65 144.548 1407.09 144.749 1406.68 145.113C1406.27 145.477 1406.03 145.975 1406.02 146.497Z" fill="#7BE669"/>
<path d="M1381.99 336.351C1381.33 335.516 1381.04 334.522 1381.18 333.538C1381.32 332.554 1381.87 331.639 1382.75 330.949L1394.17 321.956C1397.05 319.696 1400.66 318.14 1404.59 317.469C1408.53 316.798 1412.62 317.039 1416.4 318.164C1420.18 319.289 1423.5 321.252 1425.96 323.827C1428.43 326.401 1429.94 329.483 1430.33 332.715L1437.52 332.801C1438.13 332.808 1438.71 333.01 1439.13 333.361C1439.56 333.712 1439.79 334.184 1439.79 334.673C1439.78 335.162 1439.53 335.628 1439.1 335.969C1438.67 336.31 1438.08 336.497 1437.48 336.49L1430.29 336.404C1429.81 339.626 1428.22 342.67 1425.69 345.185C1423.16 347.701 1419.8 349.584 1415.99 350.618C1412.18 351.653 1408.09 351.796 1404.17 351.031C1400.26 350.266 1396.68 348.625 1393.87 346.296L1382.67 337.033C1382.42 336.824 1382.19 336.596 1381.99 336.351V336.351ZM1406.26 334.272C1406.26 334.761 1406.49 335.233 1406.91 335.584C1407.34 335.935 1407.92 336.137 1408.52 336.144L1425.68 336.349C1425.91 335.128 1425.92 333.887 1425.73 332.66L1408.57 332.455C1407.96 332.448 1407.38 332.635 1406.95 332.976C1406.51 333.317 1406.27 333.783 1406.26 334.272Z" fill="#7BE669"/>
<path fill-rule="evenodd" clip-rule="evenodd" d="M1438.4 760.989L1438.37 764.429L1426.84 764.329C1426.36 765.711 1425.32 766.918 1423.94 767.811C1424.51 768.851 1424.82 769.994 1424.81 771.191C1424.76 775.937 1419.69 779.746 1413.47 779.692C1410.27 779.665 1407.39 778.617 1405.36 776.957C1404.13 777.544 1402.67 777.879 1401.11 777.866C1396.89 777.829 1393.45 775.249 1393.3 772.052C1388.06 770.592 1384.33 766.735 1384.37 762.243C1384.41 757.751 1388.21 753.958 1393.47 752.588C1393.69 749.395 1397.17 746.874 1401.39 746.911C1402.95 746.924 1404.4 747.284 1405.62 747.893C1407.69 746.269 1410.59 745.27 1413.79 745.298C1420 745.352 1425.01 749.247 1424.96 753.994C1424.95 755.191 1424.62 756.328 1424.03 757.358C1425.4 758.275 1426.41 759.499 1426.87 760.89L1438.4 760.989Z" fill="#7BE669"/>
<path fill-rule="evenodd" clip-rule="evenodd" d="M1416.41 820.447C1416.5 823.534 1413.8 826.318 1410.28 826.318C1407.01 826.318 1404.15 823.865 1404.15 820.447C1401.84 822.727 1397.88 822.821 1395.43 820.508C1393.21 818.412 1392.85 814.867 1395.49 812.265C1392.24 812.354 1389.27 809.812 1389.27 806.479C1389.27 803.4 1391.86 800.692 1395.49 800.692C1392.93 798.277 1393.12 794.635 1395.43 792.451C1397.73 790.273 1401.59 790.086 1404.15 792.51C1404.15 789.088 1407.02 786.639 1410.28 786.639C1413.79 786.639 1416.5 789.419 1416.41 792.51C1419.14 790.035 1422.89 790.334 1425.13 792.451C1427.58 794.764 1427.48 798.502 1425.07 800.692C1428.68 800.692 1431.28 803.387 1431.28 806.479C1431.28 809.797 1428.34 812.353 1425.07 812.265C1427.62 814.681 1427.44 818.324 1425.13 820.508C1422.83 822.686 1418.97 822.869 1416.41 820.447ZM1410.28 812.265C1406.9 812.265 1404.15 809.673 1404.15 806.479C1404.15 803.285 1406.9 800.692 1410.28 800.692C1413.66 800.692 1416.41 803.285 1416.41 806.479C1416.41 809.673 1413.66 812.265 1410.28 812.265Z" fill="#7BE669"/>
<path fill-rule="evenodd" clip-rule="evenodd" d="M1438.34 845.328L1438.29 849.282L1429.75 849.191C1428.69 854.787 1423.47 859.01 1417.26 858.944C1413.99 858.909 1414.69 858.873 1389.36 848.61C1389.36 848.578 1388.08 848.155 1388.09 846.769C1388.11 845.391 1389.39 844.986 1389.39 844.954C1412.88 835.998 1413.67 835.178 1417.52 835.219C1423.74 835.286 1428.86 839.619 1429.79 845.237L1438.34 845.328Z" fill="#7BE669"/>
<path d="M1404.19 618.173C1405.67 619.888 1406.6 621.717 1407 623.66C1407.4 625.602 1407.16 627.065 1406.3 628.049C1406.3 628.074 1406.23 628.156 1406.08 628.295C1405.94 628.434 1405.8 628.579 1405.68 628.73C1405.55 628.882 1405.49 629.033 1405.49 629.184L1420.6 629.185C1418.76 628.075 1417.23 626.814 1416.01 625.401C1415.33 624.619 1414.83 623.717 1414.53 622.695C1414.22 621.673 1414.09 620.708 1414.12 619.8C1414.16 618.892 1414.24 618.041 1414.37 617.246C1414.49 616.451 1414.64 615.827 1414.82 615.373L1415.04 614.654C1415.26 614.73 1415.54 614.85 1415.9 615.014C1416.26 615.178 1416.94 615.512 1417.93 616.016C1418.92 616.521 1419.86 617.038 1420.76 617.568C1421.66 618.098 1422.62 618.76 1423.65 619.555C1424.67 620.349 1425.52 621.138 1426.21 621.92C1429.01 625.2 1430.49 627.621 1430.63 629.185L1434.84 629.186C1435.78 629.186 1436.58 629.419 1437.27 629.886C1437.95 630.353 1438.29 630.926 1438.29 631.608C1438.29 632.289 1437.95 632.863 1437.27 633.329C1436.58 633.796 1435.78 634.029 1434.84 634.029L1431.28 634.029C1431.49 635.215 1431.33 636.596 1430.79 638.173C1430.25 639.749 1429.43 641.206 1428.31 642.543C1427.66 643.325 1426.77 644.069 1425.64 644.775C1424.51 645.482 1423.37 646.056 1422.24 646.497C1421.11 646.939 1420 647.323 1418.92 647.651C1417.84 647.979 1416.99 648.212 1416.36 648.351C1415.73 648.49 1415.4 648.559 1415.36 648.559C1415.25 648.357 1415.14 648.092 1415.01 647.764C1414.89 647.436 1414.71 646.799 1414.47 645.853C1414.24 644.907 1414.11 643.999 1414.09 643.129C1414.08 642.259 1414.24 641.306 1414.58 640.272C1414.92 639.238 1415.49 638.355 1416.28 637.623C1417.07 636.892 1419.25 635.694 1422.81 634.029L1408.94 634.028C1408.94 634.179 1409 634.331 1409.13 634.482C1409.26 634.634 1409.39 634.779 1409.54 634.917C1409.68 635.056 1409.77 635.138 1409.81 635.163C1410.63 636.147 1410.85 637.61 1410.45 639.553C1410.06 641.495 1409.12 643.324 1407.65 645.04C1406.96 645.822 1406.03 646.566 1404.84 647.272C1403.65 647.978 1402.52 648.54 1401.44 648.956C1400.36 649.372 1399.2 649.75 1397.96 650.091C1396.72 650.431 1395.87 650.652 1395.4 650.753C1394.93 650.854 1394.57 650.93 1394.32 650.98C1394.25 650.803 1394.16 650.557 1394.05 650.242C1393.94 649.927 1393.81 649.315 1393.65 648.407C1393.48 647.499 1393.39 646.628 1393.38 645.796C1393.36 644.963 1393.5 644.024 1393.81 642.977C1394.11 641.93 1394.61 641.015 1395.29 640.233C1396.62 638.669 1398.23 637.313 1400.12 636.166C1402.01 635.018 1403.8 634.305 1405.49 634.028L1396.8 634.028C1396.73 634.028 1396.59 634.015 1396.37 633.99C1395.94 635.125 1395.29 636.147 1394.43 637.055C1393.56 637.938 1392.24 638.732 1390.46 639.438C1388.68 640.145 1387.11 640.624 1385.74 640.876L1383.69 641.292C1383.66 641.166 1383.59 640.99 1383.5 640.763C1383.41 640.536 1383.3 640.1 1383.18 639.457C1383.05 638.814 1382.99 638.196 1382.99 637.603C1382.99 637.01 1383.11 636.335 1383.34 635.578C1383.57 634.822 1383.96 634.166 1384.5 633.611C1385.65 632.375 1387.15 631.328 1389.01 630.47C1390.86 629.613 1392.31 629.184 1393.35 629.184L1402.04 629.184C1400.35 628.907 1398.56 628.194 1396.67 627.046C1394.78 625.898 1393.17 624.542 1391.84 622.978C1391.16 622.196 1390.66 621.294 1390.36 620.272C1390.05 619.251 1389.91 618.286 1389.95 617.378C1389.99 616.469 1390.07 615.618 1390.19 614.823C1390.32 614.029 1390.45 613.404 1390.6 612.95L1390.87 612.231C1391.12 612.282 1391.47 612.351 1391.92 612.439C1392.37 612.528 1393.22 612.749 1394.48 613.102C1395.74 613.455 1396.91 613.84 1397.99 614.256C1399.07 614.672 1400.2 615.234 1401.39 615.94C1402.58 616.646 1403.51 617.391 1404.19 618.173Z" fill="#7BE669"/>
<path d="M1382.28 726.284C1381.61 725.449 1381.32 724.455 1381.46 723.471C1381.6 722.487 1382.15 721.572 1383.03 720.882L1394.46 711.889C1397.33 709.629 1400.94 708.073 1404.88 707.402C1408.81 706.731 1412.9 706.972 1416.68 708.097C1420.46 709.222 1423.78 711.185 1426.24 713.76C1428.71 716.334 1430.22 719.416 1430.62 722.648L1437.81 722.734C1438.41 722.741 1438.99 722.943 1439.41 723.294C1439.84 723.645 1440.07 724.117 1440.07 724.606C1440.06 725.095 1439.81 725.561 1439.38 725.902C1438.95 726.243 1438.36 726.43 1437.76 726.423L1430.57 726.337C1430.1 729.559 1428.5 732.603 1425.97 735.118C1423.44 737.634 1420.08 739.517 1416.27 740.551C1412.47 741.586 1408.37 741.729 1404.45 740.964C1400.54 740.199 1396.97 738.558 1394.15 736.229L1382.95 726.966C1382.7 726.757 1382.47 726.529 1382.28 726.284V726.284ZM1406.54 724.205C1406.54 724.695 1406.77 725.166 1407.2 725.517C1407.62 725.868 1408.2 726.07 1408.81 726.077L1425.97 726.282C1426.19 725.061 1426.21 723.82 1426.01 722.593L1408.85 722.388C1408.25 722.381 1407.66 722.568 1407.23 722.909C1406.8 723.25 1406.55 723.716 1406.54 724.205Z" fill="#7BE669"/>
</g>
<defs>
<clipPath id="clip0">
<rect width="1440" height="1024" fill="white"/>
</clipPath>
<clipPath id="clip1">
<rect width="44.2056" height="48.3082" fill="white" transform="matrix(0.679573 0.733608 -0.755467 0.655186 101.752 450.49)"/>
</clipPath>
<clipPath id="clip2">
<rect width="44.7872" height="47.6688" fill="white" transform="matrix(0.924358 -0.381525 0.403402 0.915023 99.2159 133.449)"/>
</clipPath>
<clipPath id="clip3">
<rect width="44.3512" height="48.1497" fill="white" transform="matrix(0.749383 -0.662137 0.686365 0.727257 1280.62 820.361)"/>
</clipPath>
<clipPath id="clip4">
<rect width="44.6765" height="47.7918" fill="white" transform="matrix(0.883676 0.468099 -0.492445 0.870343 1327.79 532.569)"/>
</clipPath>
<clipPath id="clip5">
<rect width="41.2525" height="54.2838" fill="white" transform="matrix(-0.00917014 0.999958 -0.999963 -0.0085853 54.6654 675.099)"/>
</clipPath>
<clipPath id="clip6">
<rect width="95.6761" height="98.6005" fill="white" transform="matrix(-0.548978 -0.835837 0.851839 -0.523804 1372.79 147.198)"/>
</clipPath>
<clipPath id="clip7">
<rect width="92.4618" height="115.469" fill="white" transform="matrix(0.81552 -0.578729 0.604068 0.796933 1331.84 958.979)"/>
</clipPath>
<clipPath id="clip8">
<rect width="43.0083" height="39.6786" fill="white" transform="translate(7.00665 632.052)"/>
</clipPath>
<clipPath id="clip9">
<rect width="47.426" height="50.4755" fill="white" transform="matrix(-0.0113277 0.999936 -0.999944 -0.0106052 51.0152 587.534)"/>
</clipPath>
<clipPath id="clip10">
<rect width="51.7287" height="57.2109" fill="white" transform="matrix(0.00689914 0.999976 -0.999979 0.00645912 57.215 754.958)"/>
</clipPath>
<clipPath id="clip11">
<rect width="54.1952" height="76.0147" fill="white" transform="translate(71.019 549.791) rotate(90)"/>
</clipPath>
<clipPath id="clip12">
<rect width="38.7273" height="55.5768" fill="white" transform="matrix(-4.55885e-05 1 -1 -4.26808e-05 54.5837 813.995)"/>
</clipPath>
<clipPath id="clip13">
<rect width="40.0248" height="53.7752" fill="white" transform="matrix(0.999999 -0.00112165 0.00119806 0.999999 98.0243 969.849)"/>
</clipPath>
<clipPath id="clip14">
<rect width="50.3357" height="58.0011" fill="white" transform="matrix(-0.000200538 1 -1 -0.000187747 58.0165 499.467)"/>
</clipPath>
<clipPath id="clip15">
<rect width="44.3098" height="43.7248" fill="white" transform="matrix(0.659738 0.751496 -0.772545 0.63496 22.7825 445.272)"/>
</clipPath>
<clipPath id="clip16">
<rect width="47.517" height="54.8778" fill="white" transform="matrix(0.00944079 0.999955 -0.999961 0.00883868 54.8809 852.703)"/>
</clipPath>
<clipPath id="clip17">
<rect width="62.9713" height="70.2198" fill="white" transform="matrix(-0.0126865 0.99992 -0.999929 -0.0118774 65.0179 890.313)"/>
</clipPath>
<clipPath id="clip18">
<rect width="58.9905" height="73.5163" fill="white" transform="matrix(-0.0126865 0.99992 -0.999929 -0.0118774 66.2632 704.649)"/>
</clipPath>
</defs>
</svg>
